<svg xmlns="http://www.w3.org/2000/svg" xmlns:xlink="http://www.w3.org/1999/xlink" contentStyleType="text/css" data-diagram-type="DESCRIPTION" height="513px" preserveAspectRatio="none" style="width:542px;height:513px;background:#FFFFFF;" version="1.1" viewBox="0 0 542 513" width="542px" zoomAndPan="magnify"><defs><filter height="300%" id="favu8e6r5s7vm" width="300%" x="-1" y="-1"><feGaussianBlur result="blurOut" stdDeviation="2"/><feColorMatrix in="blurOut" result="blurOut2" type="matrix" values="0 0 0 0 0 0 0 0 0 0 0 0 0 0 0 0 0 0 .4 0"/><feOffset dx="4" dy="4" in="blurOut2" result="blurOut3"/><feBlend in="SourceGraphic" in2="blurOut3" mode="normal"/></filter></defs><g><!--cluster WildFly Server--><g class="cluster" data-entity="WildFly Server" data-source-line="10" data-uid="ent0004" id="cluster_WildFly Server"><polygon fill="none" filter="url(#favu8e6r5s7vm)" points="110.5,194.839,120.5,184.839,525.5,184.839,525.5,396.839,515.5,406.839,110.5,406.839,110.5,194.839" style="stroke:#181818;stroke-width:1;"/><line style="stroke:#181818;stroke-width:1;" x1="515.5" x2="525.5" y1="194.839" y2="184.839"/><line style="stroke:#181818;stroke-width:1;" x1="110.5" x2="515.5" y1="194.839" y2="194.839"/><line style="stroke:#181818;stroke-width:1;" x1="515.5" x2="515.5" y1="194.839" y2="406.839"/><text fill="#000000" font-family="sans-serif" font-size="14" font-weight="bold" lengthAdjust="spacing" textLength="115.4316" x="256.2842" y="210.8342">WildFly Server</text></g><!--entity Management--><g class="entity" data-entity="Management" data-source-line="11" data-uid="ent0005" id="entity_Management"><rect fill="#F1F1F1" filter="url(#favu8e6r5s7vm)" height="52.5938" rx="2.5" ry="2.5" style="stroke:#181818;stroke-width:0.5;" width="172.25" x="126.5" y="224.839"/><text fill="#000000" font-family="sans-serif" font-size="14" lengthAdjust="spacing" textLength="152.25" x="136.5" y="247.8342">Management Console</text><text fill="#000000" font-family="sans-serif" font-size="14" lengthAdjust="spacing" textLength="30.8711" x="197.1895" y="264.131">/ CLI</text></g><!--entity WebSubsystem--><g class="entity" data-entity="WebSubsystem" data-source-line="12" data-uid="ent0006" id="entity_WebSubsystem"><rect fill="#F1F1F1" filter="url(#favu8e6r5s7vm)" height="52.5938" rx="2.5" ry="2.5" style="stroke:#181818;stroke-width:0.5;" width="133.0527" x="127" y="337.839"/><text fill="#000000" font-family="sans-serif" font-size="14" lengthAdjust="spacing" textLength="113.0527" x="137" y="360.8342">Web Subsystem</text><text fill="#000000" font-family="sans-serif" font-size="14" lengthAdjust="spacing" textLength="98.1094" x="144.4717" y="377.131">(Servlets, JSP)</text></g><!--entity EJBContainer--><g class="entity" data-entity="EJBContainer" data-source-line="13" data-uid="ent0007" id="entity_EJBContainer"><rect fill="#F1F1F1" filter="url(#favu8e6r5s7vm)" height="36.2969" rx="2.5" ry="2.5" style="stroke:#181818;stroke-width:0.5;" width="115.4434" x="295" y="346.339"/><text fill="#000000" font-family="sans-serif" font-size="14" lengthAdjust="spacing" textLength="95.4434" x="305" y="369.3342">EJB Container</text></g><!--entity Messaging--><g class="entity" data-entity="Messaging" data-source-line="14" data-uid="ent0008" id="entity_Messaging"><rect fill="#F1F1F1" filter="url(#favu8e6r5s7vm)" height="52.5938" rx="2.5" ry="2.5" style="stroke:#181818;stroke-width:0.5;" width="176.1055" x="333.5" y="224.839"/><text fill="#000000" font-family="sans-serif" font-size="14" lengthAdjust="spacing" textLength="156.1055" x="343.5" y="247.8342">Messaging Subsystem</text><text fill="#000000" font-family="sans-serif" font-size="14" lengthAdjust="spacing" textLength="36.0186" x="403.5435" y="264.131">(JMS)</text></g><!--entity Internet--><g class="entity" data-entity="Internet" data-source-line="6" data-uid="ent0002" id="entity_Internet"><path d="M40.2718,14.7197 C43.3675,9.6856 47.2961,9.4204 51.1035,13.9103 C54.2115,7.7384 58.5558,7.8391 62.7975,12.7098 C65.7135,7.3872 69.9813,6.9097 73.5613,12.0251 C77.3098,7.1007 81.1667,6 85.154,11.7661 C90.1972,6.5027 94.4282,6.6514 97.2707,13.8977 C101.3283,8.7302 105.9861,9.0047 109.6725,14.3362 C117.0104,17.1756 118.7477,24.5317 112.4329,29.8071 C118.2375,36.2087 118.083,41.2924 110.087,45.6506 C108.1328,51.8112 102.599,52.2192 98.8502,47.5049 C95.9104,55.7781 91.4431,56.8202 85.3192,50.4464 C84.3868,56.1627 79.6934,58.3456 74.8054,55.0732 C70.2073,59.2713 64.9243,58.7315 62.9621,52.1714 C56.4423,57.0069 53.2172,54.3728 51.0099,47.6946 C46.8016,52.1502 41.7343,51.6818 39.0627,45.9011 C29.4047,44.9284 26.1838,37.7049 32.7799,30.2199 C26.6629,21.2376 29.7557,15.6625 40.2718,14.7197" fill="#F1F1F1" filter="url(#favu8e6r5s7vm)" style="stroke:#181818;stroke-width:0.5;"/><text fill="#000000" font-family="sans-serif" font-size="14" lengthAdjust="spacing" textLength="55.8359" x="45.5" y="33.8342">Internet</text></g><!--entity Connector--><g class="entity" data-entity="Connector" data-source-line="8" data-uid="ent0003" id="entity_Connector"><rect fill="#F1F1F1" filter="url(#favu8e6r5s7vm)" height="52.5938" rx="2.5" ry="2.5" style="stroke:#181818;stroke-width:0.5;" width="132.7314" x="7" y="111.839"/><text fill="#000000" font-family="sans-serif" font-size="14" lengthAdjust="spacing" textLength="112.7314" x="17" y="134.8342">HTTP Connector</text><text fill="#000000" font-family="sans-serif" font-size="14" lengthAdjust="spacing" textLength="78.8047" x="33.9634" y="151.131">(Undertow)</text></g><!--entity DB--><g class="entity" data-entity="DB" data-source-line="17" data-uid="ent0009" id="entity_DB"><path d="M309,460.839 C309,450.839 352.4004,450.839 352.4004,450.839 C352.4004,450.839 395.8008,450.839 395.8008,460.839 L395.8008,486.1359 C395.8008,496.1359 352.4004,496.1359 352.4004,496.1359 C352.4004,496.1359 309,496.1359 309,486.1359 L309,460.839" fill="#F1F1F1" filter="url(#favu8e6r5s7vm)" style="stroke:#181818;stroke-width:0.5;"/><path d="M309,460.839 C309,470.839 352.4004,470.839 352.4004,470.839 C352.4004,470.839 395.8008,470.839 395.8008,460.839" fill="none" style="stroke:#181818;stroke-width:0.5;"/><text fill="#000000" font-family="sans-serif" font-size="14" lengthAdjust="spacing" textLength="66.8008" x="319" y="487.8342">Database</text></g><!--link Internet to Connector--><g class="link" data-entity-1="Internet" data-entity-2="Connector" data-source-line="19" data-uid="lnk10" id="link_Internet_Connector"><path d="M73.5,51.849 C73.5,69.179 73.5,87.349 73.5,105.569" fill="none" id="Internet-to-Connector" style="stroke:#181818;stroke-width:1;"/><polygon fill="#181818" points="73.5,111.569,77.5,102.569,73.5,106.569,69.5,102.569,73.5,111.569" style="stroke:#181818;stroke-width:1;"/></g><!--link Connector to WebSubsystem--><g class="link" data-entity-1="Connector" data-entity-2="WebSubsystem" data-source-line="20" data-uid="lnk11" id="link_Connector_WebSubsystem"><path d="M52.87,164.909 C50.67,168.729 48.78,172.759 47.5,176.839 C34.1,219.679 25.18,238.899 47.5,277.839 C64.74,307.909 91.6236,325.9776 121.5136,339.3576" fill="none" id="Connector-to-WebSubsystem" style="stroke:#181818;stroke-width:1;"/><polygon fill="#181818" points="126.99,341.809,120.4098,334.481,122.4264,339.7662,117.1412,341.7828,126.99,341.809" style="stroke:#181818;stroke-width:1;"/></g><!--link Connector to EJBContainer--><g class="link" data-entity-1="Connector" data-entity-2="EJBContainer" data-source-line="21" data-uid="lnk12" id="link_Connector_EJBContainer"><path d="M73.06,164.919 C73.92,195.559 79.97,246.629 108.5,277.839 C110.22,279.719 226.4773,319.9546 297.2973,344.3546" fill="none" id="Connector-to-EJBContainer" style="stroke:#181818;stroke-width:1;"/><polygon fill="#181818" points="302.97,346.309,295.7639,339.5955,298.2427,344.6803,293.1579,347.1592,302.97,346.309" style="stroke:#181818;stroke-width:1;"/></g><!--link Connector to Messaging--><g class="link" data-entity-1="Connector" data-entity-2="Messaging" data-source-line="22" data-uid="lnk13" id="link_Connector_Messaging"><path d="M140.06,141.609 C189.91,145.199 258.94,154.249 315.5,176.839 C343.99,188.219 367.6885,204.6914 387.8885,221.0614" fill="none" id="Connector-to-Messaging" style="stroke:#181818;stroke-width:1;"/><polygon fill="#181818" points="392.55,224.839,388.0762,216.0649,388.6654,221.691,383.0393,222.2802,392.55,224.839" style="stroke:#181818;stroke-width:1;"/></g><!--link WebSubsystem to DB--><g class="link" data-entity-1="WebSubsystem" data-entity-2="DB" data-source-line="23" data-uid="lnk14" id="link_WebSubsystem_DB"><path d="M231.58,390.969 C258.69,409.209 289.7224,430.0889 315.3824,447.3589" fill="none" id="WebSubsystem-to-DB" style="stroke:#181818;stroke-width:1;"/><polygon fill="#181818" points="320.36,450.709,315.127,442.3655,316.212,447.9173,310.6602,449.0023,320.36,450.709" style="stroke:#181818;stroke-width:1;"/></g><!--link EJBContainer to DB--><g class="link" data-entity-1="EJBContainer" data-entity-2="DB" data-source-line="24" data-uid="lnk15" id="link_EJBContainer_DB"><path d="M352.5,382.529 C352.5,401.079 352.5,424.659 352.5,444.759" fill="none" id="EJBContainer-to-DB" style="stroke:#181818;stroke-width:1;"/><polygon fill="#181818" points="352.5,450.759,356.5,441.759,352.5,445.759,348.5,441.759,352.5,450.759" style="stroke:#181818;stroke-width:1;"/></g><!--link Messaging to DB--><g class="link" data-entity-1="Messaging" data-entity-2="DB" data-source-line="25" data-uid="lnk16" id="link_Messaging_DB"><path d="M429.64,278.119 C438.65,311.549 449.24,370.789 427.5,414.839 C420.24,429.549 412.1399,438.1291 398.9499,447.2791" fill="none" id="Messaging-to-DB" style="stroke:#181818;stroke-width:1;"/><polygon fill="#181818" points="394.02,450.699,403.6948,448.8558,398.1283,447.8491,399.1349,442.2826,394.02,450.699" style="stroke:#181818;stroke-width:1;"/></g><!--link Management to WebSubsystem--><g class="link" data-entity-1="Management" data-entity-2="WebSubsystem" data-source-line="26" data-uid="lnk17" id="link_Management_WebSubsystem"><path d="M208.09,278.079 C205.02,296.019 201.9642,313.9154 198.8942,331.8154" fill="none" id="Management-to-WebSubsystem" style="stroke:#181818;stroke-width:1;"/><polygon fill="#181818" points="197.88,337.729,203.3438,329.5347,198.7252,332.801,195.4589,328.1824,197.88,337.729" style="stroke:#181818;stroke-width:1;"/></g><!--link Management to EJBContainer--><g class="link" data-entity-1="Management" data-entity-2="EJBContainer" data-source-line="27" data-uid="lnk18" id="link_Management_EJBContainer"><path d="M244.97,278.079 C271.3,298.959 302.999,324.0906 325.959,342.3006" fill="none" id="Management-to-EJBContainer" style="stroke:#181818;stroke-width:1;"/><polygon fill="#181818" points="330.66,346.029,326.0942,337.3025,326.7425,342.922,321.123,343.5704,330.66,346.029" style="stroke:#181818;stroke-width:1;"/></g><!--SRC=[PL7DJiCm3BxxAQoUG6BY3P3O1c8JaoPrQ9TTlCQKYjIPafGn8TwTDADjkkKG9T-F_SLndvKSo5ADpfyqXzrMXMzg3MvWFaYPOoKbUjjmGXIcFXXXyNdqMYuyIQbJYU9tQhJVyBT_r5KfTL1Z4JQs08KsZS9iqTw4VORaiBi0zEKmUzbirZWp8W4oTYStRwBOUdEyZPwU0H2ZWdvRQVMiJvYp_MARuGzWM4d15GcL7CC4ipEQTtAFizT5h3Umbxujxp5lzkxaFDSXHzj0itTtkCpNvp11qYikxK_BQTlFKoLjhA0EI0zSXMJdg6pddhPShl9pevw6Nm15dlRaWcl-VugQ-HIWcoXE9W_9gFfJn4UfnzGeufWQ8gJ-I8NEgR73XZTrmF0JLpakkBJU7m00]--></g></svg>