<svg xmlns="http://www.w3.org/2000/svg" xmlns:xlink="http://www.w3.org/1999/xlink" contentStyleType="text/css" data-diagram-type="DESCRIPTION" height="352px" preserveAspectRatio="none" style="width:360px;height:352px;background:#FFFFFF;" version="1.1" viewBox="0 0 360 352" width="360px" zoomAndPan="magnify"><defs><filter height="300%" id="f1n8y08kqwjpyu" width="300%" x="-1" y="-1"><feGaussianBlur result="blurOut" stdDeviation="2"/><feColorMatrix in="blurOut" result="blurOut2" type="matrix" values="0 0 0 0 0 0 0 0 0 0 0 0 0 0 0 0 0 0 .4 0"/><feOffset dx="4" dy="4" in="blurOut2" result="blurOut3"/><feBlend in="SourceGraphic" in2="blurOut3" mode="normal"/></filter></defs><g><!--entity Internet--><g class="entity" data-entity="Internet" data-source-line="6" data-uid="ent0002" id="entity_Internet"><path d="M147.7718,14.7197 C150.8675,9.6856 154.7961,9.4204 158.6035,13.9103 C161.7115,7.7384 166.0558,7.8391 170.2975,12.7098 C173.2135,7.3872 177.4813,6.9097 181.0613,12.0251 C184.8098,7.1007 188.6667,6 192.654,11.7661 C197.6972,6.5027 201.9282,6.6514 204.7707,13.8977 C208.8283,8.7302 213.4861,9.0047 217.1725,14.3362 C224.5104,17.1756 226.2477,24.5317 219.9329,29.8071 C225.7375,36.2087 225.583,41.2924 217.587,45.6506 C215.6328,51.8112 210.099,52.2192 206.3502,47.5049 C203.4104,55.7781 198.9431,56.8202 192.8192,50.4464 C191.8868,56.1627 187.1934,58.3456 182.3054,55.0732 C177.7073,59.2713 172.4243,58.7315 170.4621,52.1714 C163.9423,57.0069 160.7172,54.3728 158.5099,47.6946 C154.3016,52.1502 149.2343,51.6818 146.5627,45.9011 C136.9047,44.9284 133.6838,37.7049 140.2799,30.2199 C134.1629,21.2376 137.2557,15.6625 147.7718,14.7197" fill="#F1F1F1" filter="url(#f1n8y08kqwjpyu)" style="stroke:#181818;stroke-width:0.5;"/><text fill="#000000" font-family="sans-serif" font-size="14" lengthAdjust="spacing" textLength="55.8359" x="153" y="33.8342">Internet</text></g><!--entity HTTP11--><g class="entity" data-entity="HTTP11" data-source-line="8" data-uid="ent0003" id="entity_HTTP11"><rect fill="#F1F1F1" filter="url(#f1n8y08kqwjpyu)" height="36.2969" rx="2.5" ry="2.5" style="stroke:#181818;stroke-width:0.5;" width="159.7129" x="7" y="111.839"/><text fill="#000000" font-family="sans-serif" font-size="14" lengthAdjust="spacing" textLength="139.7129" x="17" y="134.8342">HTTP/1.1 Connector</text></g><!--entity HTTP2--><g class="entity" data-entity="HTTP2" data-source-line="9" data-uid="ent0004" id="entity_HTTP2"><rect fill="#F1F1F1" filter="url(#f1n8y08kqwjpyu)" height="36.2969" rx="2.5" ry="2.5" style="stroke:#181818;stroke-width:0.5;" width="146.3555" x="202" y="111.839"/><text fill="#000000" font-family="sans-serif" font-size="14" lengthAdjust="spacing" textLength="126.3555" x="212" y="134.8342">HTTP/2 Connector</text></g><!--entity Jetty--><g class="entity" data-entity="Jetty" data-source-line="11" data-uid="ent0005" id="entity_Jetty"><rect fill="#F1F1F1" filter="url(#f1n8y08kqwjpyu)" height="36.2969" rx="2.5" ry="2.5" style="stroke:#181818;stroke-width:0.5;" width="102.3662" x="130" y="207.839"/><text fill="#000000" font-family="sans-serif" font-size="14" lengthAdjust="spacing" textLength="82.3662" x="140" y="230.8342">Jetty Server</text></g><!--entity Store--><g class="entity" data-entity="Store" data-source-line="13" data-uid="ent0006" id="entity_Store"><rect fill="#F1F1F1" filter="url(#f1n8y08kqwjpyu)" height="36.2969" rx="2.5" ry="2.5" style="stroke:#181818;stroke-width:0.5;" width="120.4541" x="39" y="303.839"/><text fill="#000000" font-family="sans-serif" font-size="14" lengthAdjust="spacing" textLength="100.4541" x="49" y="326.8342">WebApp Store</text></g><!--entity Catalog--><g class="entity" data-entity="Catalog" data-source-line="14" data-uid="ent0007" id="entity_Catalog"><rect fill="#F1F1F1" filter="url(#f1n8y08kqwjpyu)" height="36.2969" rx="2.5" ry="2.5" style="stroke:#181818;stroke-width:0.5;" width="136.9082" x="194.5" y="303.839"/><text fill="#000000" font-family="sans-serif" font-size="14" lengthAdjust="spacing" textLength="116.9082" x="204.5" y="326.8342">WebApp Catalog</text></g><!--link Internet to HTTP11--><g class="link" data-entity-1="Internet" data-entity-2="HTTP11" data-source-line="16" data-uid="lnk8" id="link_Internet_HTTP11"><path d="M159.67,52.299 C142.55,70.329 123.0101,90.9067 107.4001,107.3567" fill="none" id="Internet-to-HTTP11" style="stroke:#181818;stroke-width:1;"/><polygon fill="#181818" points="103.27,111.709,112.3666,107.934,106.7117,108.0821,106.5636,102.4272,103.27,111.709" style="stroke:#181818;stroke-width:1;"/></g><!--link Internet to HTTP2--><g class="link" data-entity-1="Internet" data-entity-2="HTTP2" data-source-line="17" data-uid="lnk9" id="link_Internet_HTTP2"><path d="M202.33,52.299 C219.45,70.329 238.9899,90.9067 254.5999,107.3567" fill="none" id="Internet-to-HTTP2" style="stroke:#181818;stroke-width:1;"/><polygon fill="#181818" points="258.73,111.709,255.4364,102.4272,255.2883,108.0821,249.6334,107.934,258.73,111.709" style="stroke:#181818;stroke-width:1;"/></g><!--link HTTP11 to Jetty--><g class="link" data-entity-1="HTTP11" data-entity-2="Jetty" data-source-line="19" data-uid="lnk10" id="link_HTTP11_Jetty"><path d="M104.24,148.079 C121.2,165.039 142.7074,186.5464 159.6274,203.4664" fill="none" id="HTTP11-to-Jetty" style="stroke:#181818;stroke-width:1;"/><polygon fill="#181818" points="163.87,207.709,160.3345,198.5167,160.3345,204.1735,154.6776,204.1735,163.87,207.709" style="stroke:#181818;stroke-width:1;"/></g><!--link HTTP2 to Jetty--><g class="link" data-entity-1="HTTP2" data-entity-2="Jetty" data-source-line="20" data-uid="lnk11" id="link_HTTP2_Jetty"><path d="M257.76,148.079 C240.8,165.039 219.2926,186.5464 202.3726,203.4664" fill="none" id="HTTP2-to-Jetty" style="stroke:#181818;stroke-width:1;"/><polygon fill="#181818" points="198.13,207.709,207.3224,204.1735,201.6655,204.1735,201.6655,198.5167,198.13,207.709" style="stroke:#181818;stroke-width:1;"/></g><!--link Jetty to Store--><g class="link" data-entity-1="Jetty" data-entity-2="Store" data-source-line="22" data-uid="lnk12" id="link_Jetty_Store"><path d="M165.96,244.079 C151.16,261.039 132.6557,282.269 117.8857,299.189" fill="none" id="Jetty-to-Store" style="stroke:#181818;stroke-width:1;"/><polygon fill="#181818" points="113.94,303.709,122.872,299.5594,117.2281,299.9423,116.8452,294.2984,113.94,303.709" style="stroke:#181818;stroke-width:1;"/></g><!--link Jetty to Catalog--><g class="link" data-entity-1="Jetty" data-entity-2="Catalog" data-source-line="23" data-uid="lnk13" id="link_Jetty_Catalog"><path d="M196.04,244.079 C210.84,261.039 229.3443,282.269 244.1143,299.189" fill="none" id="Jetty-to-Catalog" style="stroke:#181818;stroke-width:1;"/><polygon fill="#181818" points="248.06,303.709,245.1548,294.2984,244.7719,299.9423,239.128,299.5594,248.06,303.709" style="stroke:#181818;stroke-width:1;"/></g><!--SRC=[RO_F3e8m3CRlUug6knfu01F2HJsPGE9vZeh4qP5H_FFsZWqKefUctzVVsc_ThQPMMjb0no-DhjfQSTzeqNqdLrcQHqqLiErnDb2cQGqXSUxVMbGigT9pfCIBx3KN-EHKrnKrZWRb2beXb3Pz2T5-K8GSWUnW4a9yra6qAuhZ9bx7a1aYPnlhsS6Eunym-OCbYtq7P7v1ZlQE0V760ZdXEMrRoDqIz8Zl_X2PPAbDvPcn5sBw1QnMsodcZ-SoXP5tGWJlpxG8KGSZ1FZgyTWR]--></g></svg>