<svg xmlns="http://www.w3.org/2000/svg" xmlns:xlink="http://www.w3.org/1999/xlink" contentStyleType="text/css" data-diagram-type="DESCRIPTION" height="610px" preserveAspectRatio="none" style="width:296px;height:610px;background:#FFFFFF;" version="1.1" viewBox="0 0 296 610" width="296px" zoomAndPan="magnify"><defs><filter height="300%" id="fd02ajy2s24go" width="300%" x="-1" y="-1"><feGaussianBlur result="blurOut" stdDeviation="2"/><feColorMatrix in="blurOut" result="blurOut2" type="matrix" values="0 0 0 0 0 0 0 0 0 0 0 0 0 0 0 0 0 0 .4 0"/><feOffset dx="4" dy="4" in="blurOut2" result="blurOut3"/><feBlend in="SourceGraphic" in2="blurOut3" mode="normal"/></filter></defs><g><!--cluster WebLogic Server--><g class="cluster" data-entity="WebLogic Server" data-source-line="10" data-uid="ent0004" id="cluster_WebLogic Server"><polygon fill="none" filter="url(#fd02ajy2s24go)" points="16,195.839,26,185.839,234,185.839,234,493.839,224,503.839,16,503.839,16,195.839" style="stroke:#181818;stroke-width:1;"/><line style="stroke:#181818;stroke-width:1;" x1="224" x2="234" y1="195.839" y2="185.839"/><line style="stroke:#181818;stroke-width:1;" x1="16" x2="224" y1="195.839" y2="195.839"/><line style="stroke:#181818;stroke-width:1;" x1="224" x2="224" y1="195.839" y2="503.839"/><text fill="#000000" font-family="sans-serif" font-size="14" font-weight="bold" lengthAdjust="spacing" textLength="133.499" x="54.2505" y="211.8342">WebLogic Server</text></g><!--entity WebContainer--><g class="entity" data-entity="WebContainer" data-source-line="11" data-uid="ent0005" id="entity_WebContainer"><rect fill="#F1F1F1" filter="url(#fd02ajy2s24go)" height="52.5938" rx="2.5" ry="2.5" style="stroke:#181818;stroke-width:0.5;" width="124.207" x="47" y="225.839"/><text fill="#000000" font-family="sans-serif" font-size="14" lengthAdjust="spacing" textLength="104.207" x="57" y="248.8342">Web Container</text><text fill="#000000" font-family="sans-serif" font-size="14" lengthAdjust="spacing" textLength="94.2197" x="61.9937" y="265.131">(Servets, JSP)</text></g><!--entity AppRuntime--><g class="entity" data-entity="AppRuntime" data-source-line="12" data-uid="ent0006" id="entity_AppRuntime"><rect fill="#F1F1F1" filter="url(#fd02ajy2s24go)" height="52.5938" rx="2.5" ry="2.5" style="stroke:#181818;stroke-width:0.5;" width="161.7773" x="44" y="338.839"/><text fill="#000000" font-family="sans-serif" font-size="14" lengthAdjust="spacing" textLength="141.7773" x="54" y="361.8342">Application Runtime</text><text fill="#000000" font-family="sans-serif" font-size="14" lengthAdjust="spacing" textLength="98.5469" x="75.6152" y="378.131">(EJB, JMS, JPA)</text></g><!--entity SecTran--><g class="entity" data-entity="SecTran" data-source-line="13" data-uid="ent0007" id="entity_SecTran"><rect fill="#F1F1F1" filter="url(#fd02ajy2s24go)" height="36.2969" rx="2.5" ry="2.5" style="stroke:#181818;stroke-width:0.5;" width="186.749" x="31.5" y="451.839"/><text fill="#000000" font-family="sans-serif" font-size="14" lengthAdjust="spacing" textLength="166.749" x="41.5" y="474.8342">Security &amp; Transactions</text></g><!--entity Internet--><g class="entity" data-entity="Internet" data-source-line="6" data-uid="ent0002" id="entity_Internet"><path d="M33.7718,14.7197 C36.8675,9.6856 40.7961,9.4204 44.6035,13.9103 C47.7115,7.7384 52.0558,7.8391 56.2975,12.7098 C59.2135,7.3872 63.4813,6.9097 67.0613,12.0251 C70.8098,7.1007 74.6667,6 78.654,11.7661 C83.6972,6.5027 87.9282,6.6514 90.7707,13.8977 C94.8283,8.7302 99.4861,9.0047 103.1725,14.3362 C110.5104,17.1756 112.2477,24.5317 105.9329,29.8071 C111.7375,36.2087 111.583,41.2924 103.587,45.6506 C101.6328,51.8112 96.099,52.2192 92.3502,47.5049 C89.4104,55.7781 84.9431,56.8202 78.8192,50.4464 C77.8868,56.1627 73.1934,58.3456 68.3054,55.0732 C63.7073,59.2713 58.4243,58.7315 56.4621,52.1714 C49.9423,57.0069 46.7172,54.3728 44.5099,47.6946 C40.3016,52.1502 35.2343,51.6818 32.5627,45.9011 C22.9047,44.9284 19.6838,37.7049 26.2799,30.2199 C20.1629,21.2376 23.2557,15.6625 33.7718,14.7197" fill="#F1F1F1" filter="url(#fd02ajy2s24go)" style="stroke:#181818;stroke-width:0.5;"/><text fill="#000000" font-family="sans-serif" font-size="14" lengthAdjust="spacing" textLength="55.8359" x="39" y="33.8342">Internet</text></g><!--entity HTTPChannel--><g class="entity" data-entity="HTTPChannel" data-source-line="8" data-uid="ent0003" id="entity_HTTPChannel"><rect fill="#F1F1F1" filter="url(#fd02ajy2s24go)" height="36.2969" rx="2.5" ry="2.5" style="stroke:#181818;stroke-width:0.5;" width="118" x="8" y="120.839"/><text fill="#000000" font-family="sans-serif" font-size="14" lengthAdjust="spacing" textLength="98" x="18" y="143.8342">HTTP Channel</text></g><!--entity Admin--><g class="entity" data-entity="Admin" data-source-line="16" data-uid="ent0008" id="entity_Admin"><path d="M164,111.839 L205,111.839 A3.75,3.75 0 0 1 207.5,114.339 L214.5,132.839 L284.2246,132.839 A2.5,2.5 0 0 1 286.7246,135.339 L286.7246,163.6359 A2.5,2.5 0 0 1 284.2246,166.1359 L164,166.1359 A2.5,2.5 0 0 1 161.5,163.6359 L161.5,114.339 A2.5,2.5 0 0 1 164,111.839" fill="#F1F1F1" filter="url(#fd02ajy2s24go)" style="stroke:#181818;stroke-width:0.5;"/><line style="stroke:#181818;stroke-width:0.5;" x1="161.5" x2="214.5" y1="132.839" y2="132.839"/><text fill="#000000" font-family="sans-serif" font-size="14" lengthAdjust="spacing" textLength="95.2246" x="171.5" y="152.8342">Admin Server</text></g><!--entity DB--><g class="entity" data-entity="DB" data-source-line="17" data-uid="ent0009" id="entity_DB"><path d="M81.5,557.839 C81.5,547.839 124.9004,547.839 124.9004,547.839 C124.9004,547.839 168.3008,547.839 168.3008,557.839 L168.3008,583.1359 C168.3008,593.1359 124.9004,593.1359 124.9004,593.1359 C124.9004,593.1359 81.5,593.1359 81.5,583.1359 L81.5,557.839" fill="#F1F1F1" filter="url(#fd02ajy2s24go)" style="stroke:#181818;stroke-width:0.5;"/><path d="M81.5,557.839 C81.5,567.839 124.9004,567.839 124.9004,567.839 C124.9004,567.839 168.3008,567.839 168.3008,557.839" fill="none" style="stroke:#181818;stroke-width:0.5;"/><text fill="#000000" font-family="sans-serif" font-size="14" lengthAdjust="spacing" textLength="66.8008" x="91.5" y="584.8342">Database</text></g><!--link Internet to HTTPChannel--><g class="link" data-entity-1="Internet" data-entity-2="HTTPChannel" data-source-line="19" data-uid="lnk10" id="link_Internet_HTTPChannel"><path d="M67,51.959 C67,72.319 67,96.109 67,114.719" fill="none" id="Internet-to-HTTPChannel" style="stroke:#181818;stroke-width:1;"/><polygon fill="#181818" points="67,120.719,71,111.719,67,115.719,63,111.719,67,120.719" style="stroke:#181818;stroke-width:1;"/></g><!--link HTTPChannel to WebContainer--><g class="link" data-entity-1="HTTPChannel" data-entity-2="WebContainer" data-source-line="20" data-uid="lnk11" id="link_HTTPChannel_WebContainer"><path d="M73.56,157.259 C80.48,175.639 89.3456,199.1639 97.2456,220.1439" fill="none" id="HTTPChannel-to-WebContainer" style="stroke:#181818;stroke-width:1;"/><polygon fill="#181818" points="99.36,225.759,99.9319,215.9268,97.598,221.0798,92.445,218.746,99.36,225.759" style="stroke:#181818;stroke-width:1;"/></g><!--link WebContainer to AppRuntime--><g class="link" data-entity-1="WebContainer" data-entity-2="AppRuntime" data-source-line="21" data-uid="lnk12" id="link_WebContainer_AppRuntime"><path d="M112.71,279.079 C115.3,297.019 117.874,314.8904 120.454,332.7904" fill="none" id="WebContainer-to-AppRuntime" style="stroke:#181818;stroke-width:1;"/><polygon fill="#181818" points="121.31,338.729,123.9851,329.2505,120.5967,333.7802,116.067,330.3917,121.31,338.729" style="stroke:#181818;stroke-width:1;"/></g><!--link AppRuntime to SecTran--><g class="link" data-entity-1="AppRuntime" data-entity-2="SecTran" data-source-line="22" data-uid="lnk13" id="link_AppRuntime_SecTran"><path d="M125,391.939 C125,410.559 125,429.259 125,445.589" fill="none" id="AppRuntime-to-SecTran" style="stroke:#181818;stroke-width:1;"/><polygon fill="#181818" points="125,451.589,129,442.589,125,446.589,121,442.589,125,451.589" style="stroke:#181818;stroke-width:1;"/></g><!--link SecTran to DB--><g class="link" data-entity-1="SecTran" data-entity-2="DB" data-source-line="23" data-uid="lnk14" id="link_SecTran_DB"><path d="M125,487.999 C125,504.529 125,523.619 125,541.559" fill="none" id="SecTran-to-DB" style="stroke:#181818;stroke-width:1;"/><polygon fill="#181818" points="125,547.559,129,538.559,125,542.559,121,538.559,125,547.559" style="stroke:#181818;stroke-width:1;"/></g><!--link Admin to WebContainer--><g class="link" data-entity-1="Admin" data-entity-2="WebContainer" data-source-line="24" data-uid="lnk15" id="link_Admin_WebContainer"><path d="M197.04,165.979 C178.45,183.999 158.1663,203.661 139.7063,221.571" fill="none" id="Admin-to-WebContainer" style="stroke:#181818;stroke-width:1;"/><polygon fill="#181818" points="135.4,225.749,144.6448,222.3529,138.9886,222.2674,139.0741,216.6112,135.4,225.749" style="stroke:#181818;stroke-width:1;"/></g><!--link Admin to AppRuntime--><g class="link" data-entity-1="Admin" data-entity-2="AppRuntime" data-source-line="25" data-uid="lnk16" id="link_Admin_AppRuntime"><path d="M220.29,165.969 C215.52,194.689 205.68,241.699 188,278.839 C177.62,300.649 165.1998,317.9104 151.7998,334.0704" fill="none" id="Admin-to-AppRuntime" style="stroke:#181818;stroke-width:1;"/><polygon fill="#181818" points="147.97,338.689,156.7939,334.3143,151.1615,334.8401,150.6357,329.2078,147.97,338.689" style="stroke:#181818;stroke-width:1;"/></g><!--SRC=[PP3FJiCm3CRlUGgh1mGIUmMa_K622QI9LkB29KjC5v4wLU824-BTSRDkxKOFhktlyoznqeUZLaVTGEAzHudH6UuQhzAexBGDNuvguDZXH32XQGCXSPbd8nhMLFkfnUAxxZnN-Crpxsfgn0r60aQbZ0-TXUAnhmYv09tWM2Xrma7nK5KRMEuq4VhiwXj3hHG5AvvNt3w5sXaeCNvYBE17WNmJYZXW6OYr8unlT9sDd6vXNMvkCbOS9yFbzBnjlJEQNI1uwOXTWyAuNoza_hcKi9aV868Sz4j4YQQBZlTm1LNKbBJfQIbFYTRtrAzIxy5RZ7AYRHoTrkd9VKDPpNgha_1MGvR5rKAfu-F1R7PtzaQJF6jdYqwBh4us6DEi76yv_7DF3ZxSz1zuR8-OFm00]--></g></svg>