<svg xmlns="http://www.w3.org/2000/svg" xmlns:xlink="http://www.w3.org/1999/xlink" contentStyleType="text/css" data-diagram-type="CLASS" height="252px" preserveAspectRatio="none" style="width:415px;height:252px;background:#FFFFFF;" version="1.1" viewBox="0 0 415 252" width="415px" zoomAndPan="magnify"><defs/><g><!--class HelloResource--><g class="entity" data-entity="HelloResource" data-source-line="1" data-uid="ent0002" id="entity_HelloResource"><rect fill="#F1F1F1" height="113.1875" rx="2.5" ry="2.5" style="stroke:#181818;stroke-width:0.5;" width="225.0488" x="7" y="7"/><ellipse cx="64.9619" cy="23" fill="#ADD1B2" rx="11" ry="11" style="stroke:#181818;stroke-width:1;"/><path d="M67.9307,28.6406 Q67.3525,28.9375 66.7119,29.0781 Q66.0713,29.2344 65.3682,29.2344 Q62.8682,29.2344 61.54,27.5938 Q60.2275,25.9375 60.2275,22.8125 Q60.2275,19.6875 61.54,18.0313 Q62.8682,16.375 65.3682,16.375 Q66.0713,16.375 66.7119,16.5313 Q67.3682,16.6875 67.9307,16.9844 L67.9307,19.7031 Q67.3057,19.125 66.7119,18.8594 Q66.1182,18.5781 65.4932,18.5781 Q64.1494,18.5781 63.4619,19.6563 Q62.7744,20.7188 62.7744,22.8125 Q62.7744,24.9063 63.4619,25.9844 Q64.1494,27.0469 65.4932,27.0469 Q66.1182,27.0469 66.7119,26.7813 Q67.3057,26.5 67.9307,25.9219 L67.9307,28.6406 Z " fill="#000000"/><text fill="#000000" font-family="sans-serif" font-size="14" lengthAdjust="spacing" textLength="100.625" x="85.4619" y="27.8467">HelloResource</text><line style="stroke:#181818;stroke-width:0.5;" x1="8" x2="231.0488" y1="39" y2="39"/><line style="stroke:#181818;stroke-width:0.5;" x1="8" x2="231.0488" y1="47" y2="47"/><ellipse cx="18" cy="60.6484" fill="#84BE84" rx="3" ry="3" style="stroke:#038048;stroke-width:1;"/><text fill="#000000" font-family="sans-serif" font-size="14" lengthAdjust="spacing" textLength="110.9473" x="27" y="63.9951">get(): Response</text><ellipse cx="18" cy="76.9453" fill="#84BE84" rx="3" ry="3" style="stroke:#038048;stroke-width:1;"/><text fill="#000000" font-family="sans-serif" font-size="14" lengthAdjust="spacing" textLength="199.0488" x="27" y="80.292">post(String body): Response</text><ellipse cx="18" cy="93.2422" fill="#84BE84" rx="3" ry="3" style="stroke:#038048;stroke-width:1;"/><text fill="#000000" font-family="sans-serif" font-size="14" lengthAdjust="spacing" textLength="192.0625" x="27" y="96.5889">put(String body): Response</text><ellipse cx="18" cy="109.5391" fill="#84BE84" rx="3" ry="3" style="stroke:#038048;stroke-width:1;"/><text fill="#000000" font-family="sans-serif" font-size="14" lengthAdjust="spacing" textLength="132.0635" x="27" y="112.8857">delete(): Response</text></g><!--class RestApplication--><g class="entity" data-entity="RestApplication" data-source-line="8" data-uid="ent0003" id="entity_RestApplication"><rect fill="#F1F1F1" height="48" rx="2.5" ry="2.5" style="stroke:#181818;stroke-width:0.5;" width="141.3477" x="267" y="39.5"/><ellipse cx="282" cy="55.5" fill="#ADD1B2" rx="11" ry="11" style="stroke:#181818;stroke-width:1;"/><path d="M284.9688,61.1406 Q284.3906,61.4375 283.75,61.5781 Q283.1094,61.7344 282.4063,61.7344 Q279.9063,61.7344 278.5781,60.0938 Q277.2656,58.4375 277.2656,55.3125 Q277.2656,52.1875 278.5781,50.5313 Q279.9063,48.875 282.4063,48.875 Q283.1094,48.875 283.75,49.0313 Q284.4063,49.1875 284.9688,49.4844 L284.9688,52.2031 Q284.3438,51.625 283.75,51.3594 Q283.1563,51.0781 282.5313,51.0781 Q281.1875,51.0781 280.5,52.1563 Q279.8125,53.2188 279.8125,55.3125 Q279.8125,57.4063 280.5,58.4844 Q281.1875,59.5469 282.5313,59.5469 Q283.1563,59.5469 283.75,59.2813 Q284.3438,59 284.9688,58.4219 L284.9688,61.1406 Z " fill="#000000"/><text fill="#000000" font-family="sans-serif" font-size="14" lengthAdjust="spacing" textLength="109.3477" x="296" y="60.3467">RestApplication</text><line style="stroke:#181818;stroke-width:0.5;" x1="268" x2="407.3477" y1="71.5" y2="71.5"/><line style="stroke:#181818;stroke-width:0.5;" x1="268" x2="407.3477" y1="79.5" y2="79.5"/></g><!--class Response--><g class="entity" data-entity="Response" data-source-line="11" data-uid="ent0004" id="entity_Response"><rect fill="#F1F1F1" height="48" rx="2.5" ry="2.5" style="stroke:#181818;stroke-width:0.5;" width="99.8672" x="69.5" y="197"/><ellipse cx="84.5" cy="213" fill="#ADD1B2" rx="11" ry="11" style="stroke:#181818;stroke-width:1;"/><path d="M87.4688,218.6406 Q86.8906,218.9375 86.25,219.0781 Q85.6094,219.2344 84.9063,219.2344 Q82.4063,219.2344 81.0781,217.5938 Q79.7656,215.9375 79.7656,212.8125 Q79.7656,209.6875 81.0781,208.0313 Q82.4063,206.375 84.9063,206.375 Q85.6094,206.375 86.25,206.5313 Q86.9063,206.6875 87.4688,206.9844 L87.4688,209.7031 Q86.8438,209.125 86.25,208.8594 Q85.6563,208.5781 85.0313,208.5781 Q83.6875,208.5781 83,209.6563 Q82.3125,210.7188 82.3125,212.8125 Q82.3125,214.9063 83,215.9844 Q83.6875,217.0469 85.0313,217.0469 Q85.6563,217.0469 86.25,216.7813 Q86.8438,216.5 87.4688,215.9219 L87.4688,218.6406 Z " fill="#000000"/><text fill="#000000" font-family="sans-serif" font-size="14" lengthAdjust="spacing" textLength="67.8672" x="98.5" y="217.8467">Response</text><line style="stroke:#181818;stroke-width:0.5;" x1="70.5" x2="168.3672" y1="229" y2="229"/><line style="stroke:#181818;stroke-width:0.5;" x1="70.5" x2="168.3672" y1="237" y2="237"/></g><!--link HelloResource to Response--><g class="link" data-entity-1="HelloResource" data-entity-2="Response" data-source-line="11" data-uid="lnk5" id="link_HelloResource_Response"><path codeLine="11" d="M119.5,120.2 C119.5,146.52 119.5,170.51 119.5,190.69" fill="none" id="HelloResource-to-Response" style="stroke:#181818;stroke-width:1;"/><polygon fill="#181818" points="119.5,196.69,123.5,187.69,119.5,191.69,115.5,187.69,119.5,196.69" style="stroke:#181818;stroke-width:1;"/><text fill="#000000" font-family="sans-serif" font-size="13" lengthAdjust="spacing" textLength="61.1978" x="120.5" y="163.0669">haszn&#225;lja</text></g><!--SRC=[Iyv9B2vMy4ZDoSaFIYtEBorAJbMevb9Gq4vFBT7Gj5802XRavnMdWeGAyejBD89BYZBpqXMIybCgqQLBySccfEQabgIY65dBnPKCjXueKk9OK92JcPnOafcV1tG0K0hLJRgwTd2D2bOA6Od5LNc75-Pa9N810000]--></g></svg>