<svg xmlns="http://www.w3.org/2000/svg" xmlns:xlink="http://www.w3.org/1999/xlink" contentStyleType="text/css" data-diagram-type="DESCRIPTION" height="609px" preserveAspectRatio="none" style="width:242px;height:609px;background:#FFFFFF;" version="1.1" viewBox="0 0 242 609" width="242px" zoomAndPan="magnify"><defs><filter height="300%" id="fitgyvrvwqvm8" width="300%" x="-1" y="-1"><feGaussianBlur result="blurOut" stdDeviation="2"/><feColorMatrix in="blurOut" result="blurOut2" type="matrix" values="0 0 0 0 0 0 0 0 0 0 0 0 0 0 0 0 0 0 .4 0"/><feOffset dx="4" dy="4" in="blurOut2" result="blurOut3"/><feBlend in="SourceGraphic" in2="blurOut3" mode="normal"/></filter></defs><g><!--cluster Geronimo Server--><g class="cluster" data-entity="Geronimo Server" data-source-line="10" data-uid="ent0004" id="cluster_Geronimo Server"><polygon fill="none" filter="url(#fitgyvrvwqvm8)" points="16,177.839,26,167.839,225,167.839,225,492.839,215,502.839,16,502.839,16,177.839" style="stroke:#181818;stroke-width:1;"/><line style="stroke:#181818;stroke-width:1;" x1="215" x2="225" y1="177.839" y2="167.839"/><line style="stroke:#181818;stroke-width:1;" x1="16" x2="215" y1="177.839" y2="177.839"/><line style="stroke:#181818;stroke-width:1;" x1="215" x2="215" y1="177.839" y2="502.839"/><text fill="#000000" font-family="sans-serif" font-size="14" font-weight="bold" lengthAdjust="spacing" textLength="133.3623" x="49.8188" y="193.8342">Geronimo Server</text></g><!--entity Web--><g class="entity" data-entity="Web" data-source-line="11" data-uid="ent0005" id="entity_Web"><rect fill="#F1F1F1" filter="url(#fitgyvrvwqvm8)" height="52.5938" rx="2.5" ry="2.5" style="stroke:#181818;stroke-width:0.5;" width="124.207" x="58" y="207.839"/><text fill="#000000" font-family="sans-serif" font-size="14" lengthAdjust="spacing" textLength="104.207" x="68" y="230.8342">Web Container</text><text fill="#000000" font-family="sans-serif" font-size="14" lengthAdjust="spacing" textLength="94.2197" x="72.9937" y="247.131">(Servets, JSP)</text></g><!--entity EJB--><g class="entity" data-entity="EJB" data-source-line="12" data-uid="ent0006" id="entity_EJB"><rect fill="#F1F1F1" filter="url(#fitgyvrvwqvm8)" height="52.5938" rx="2.5" ry="2.5" style="stroke:#181818;stroke-width:0.5;" width="150.3545" x="45" y="320.839"/><text fill="#000000" font-family="sans-serif" font-size="14" lengthAdjust="spacing" textLength="95.4434" x="72.4556" y="343.8342">EJB Container</text><text fill="#000000" font-family="sans-serif" font-size="14" lengthAdjust="spacing" textLength="130.3545" x="55" y="360.131">(Enterprise Beans)</text></g><!--entity EE--><g class="entity" data-entity="EE" data-source-line="13" data-uid="ent0007" id="entity_EE"><rect fill="#F1F1F1" filter="url(#fitgyvrvwqvm8)" height="52.5938" rx="2.5" ry="2.5" style="stroke:#181818;stroke-width:0.5;" width="153.376" x="43.5" y="433.839"/><text fill="#000000" font-family="sans-serif" font-size="14" lengthAdjust="spacing" textLength="115.1992" x="62.5884" y="456.8342">Java EE Services</text><text fill="#000000" font-family="sans-serif" font-size="14" lengthAdjust="spacing" textLength="133.376" x="53.5" y="473.131">(JTA, JMS, JPA, etc.)</text></g><!--entity Internet--><g class="entity" data-entity="Internet" data-source-line="6" data-uid="ent0002" id="entity_Internet"><path d="M86.7718,14.7197 C89.8675,9.6856 93.7961,9.4204 97.6035,13.9103 C100.7115,7.7384 105.0558,7.8391 109.2975,12.7098 C112.2135,7.3872 116.4813,6.9097 120.0613,12.0251 C123.8098,7.1007 127.6667,6 131.654,11.7661 C136.6972,6.5027 140.9282,6.6514 143.7707,13.8977 C147.8283,8.7302 152.4861,9.0047 156.1725,14.3362 C163.5104,17.1756 165.2477,24.5317 158.9329,29.8071 C164.7375,36.2087 164.583,41.2924 156.587,45.6506 C154.6328,51.8112 149.099,52.2192 145.3502,47.5049 C142.4104,55.7781 137.9431,56.8202 131.8192,50.4464 C130.8868,56.1627 126.1934,58.3456 121.3054,55.0732 C116.7073,59.2713 111.4243,58.7315 109.4621,52.1714 C102.9423,57.0069 99.7172,54.3728 97.5099,47.6946 C93.3016,52.1502 88.2343,51.6818 85.5627,45.9011 C75.9047,44.9284 72.6838,37.7049 79.2799,30.2199 C73.1629,21.2376 76.2557,15.6625 86.7718,14.7197" fill="#F1F1F1" filter="url(#fitgyvrvwqvm8)" style="stroke:#181818;stroke-width:0.5;"/><text fill="#000000" font-family="sans-serif" font-size="14" lengthAdjust="spacing" textLength="55.8359" x="92" y="33.8342">Internet</text></g><!--entity Connector--><g class="entity" data-entity="Connector" data-source-line="8" data-uid="ent0003" id="entity_Connector"><rect fill="#F1F1F1" filter="url(#fitgyvrvwqvm8)" height="36.2969" rx="2.5" ry="2.5" style="stroke:#181818;stroke-width:0.5;" width="132.7314" x="53.5" y="111.839"/><text fill="#000000" font-family="sans-serif" font-size="14" lengthAdjust="spacing" textLength="112.7314" x="63.5" y="134.8342">HTTP Connector</text></g><!--entity DB--><g class="entity" data-entity="DB" data-source-line="16" data-uid="ent0008" id="entity_DB"><path d="M76.5,556.839 C76.5,546.839 119.9004,546.839 119.9004,546.839 C119.9004,546.839 163.3008,546.839 163.3008,556.839 L163.3008,582.1359 C163.3008,592.1359 119.9004,592.1359 119.9004,592.1359 C119.9004,592.1359 76.5,592.1359 76.5,582.1359 L76.5,556.839" fill="#F1F1F1" filter="url(#fitgyvrvwqvm8)" style="stroke:#181818;stroke-width:0.5;"/><path d="M76.5,556.839 C76.5,566.839 119.9004,566.839 119.9004,566.839 C119.9004,566.839 163.3008,566.839 163.3008,556.839" fill="none" style="stroke:#181818;stroke-width:0.5;"/><text fill="#000000" font-family="sans-serif" font-size="14" lengthAdjust="spacing" textLength="66.8008" x="86.5" y="583.8342">Database</text></g><!--link Internet to Connector--><g class="link" data-entity-1="Internet" data-entity-2="Connector" data-source-line="18" data-uid="lnk9" id="link_Internet_Connector"><path d="M120,52.299 C120,70.329 120,89.259 120,105.709" fill="none" id="Internet-to-Connector" style="stroke:#181818;stroke-width:1;"/><polygon fill="#181818" points="120,111.709,124,102.709,120,106.709,116,102.709,120,111.709" style="stroke:#181818;stroke-width:1;"/></g><!--link Connector to Web--><g class="link" data-entity-1="Connector" data-entity-2="Web" data-source-line="19" data-uid="lnk10" id="link_Connector_Web"><path d="M120,148.229 C120,164.559 120,183.209 120,201.779" fill="none" id="Connector-to-Web" style="stroke:#181818;stroke-width:1;"/><polygon fill="#181818" points="120,207.779,124,198.779,120,202.779,116,198.779,120,207.779" style="stroke:#181818;stroke-width:1;"/></g><!--link Web to EJB--><g class="link" data-entity-1="Web" data-entity-2="EJB" data-source-line="20" data-uid="lnk11" id="link_Web_EJB"><path d="M120,261.079 C120,279.019 120,296.829 120,314.729" fill="none" id="Web-to-EJB" style="stroke:#181818;stroke-width:1;"/><polygon fill="#181818" points="120,320.729,124,311.729,120,315.729,116,311.729,120,320.729" style="stroke:#181818;stroke-width:1;"/></g><!--link EJB to EE--><g class="link" data-entity-1="EJB" data-entity-2="EE" data-source-line="21" data-uid="lnk12" id="link_EJB_EE"><path d="M120,374.079 C120,392.019 120,409.829 120,427.729" fill="none" id="EJB-to-EE" style="stroke:#181818;stroke-width:1;"/><polygon fill="#181818" points="120,433.729,124,424.729,120,428.729,116,424.729,120,433.729" style="stroke:#181818;stroke-width:1;"/></g><!--link EE to DB--><g class="link" data-entity-1="EE" data-entity-2="DB" data-source-line="22" data-uid="lnk13" id="link_EE_DB"><path d="M120,486.969 C120,505.149 120,523.279 120,540.529" fill="none" id="EE-to-DB" style="stroke:#181818;stroke-width:1;"/><polygon fill="#181818" points="120,546.529,124,537.529,120,541.529,116,537.529,120,546.529" style="stroke:#181818;stroke-width:1;"/></g><!--SRC=[NL31JiCm3BtxAwoUG69y0j9AAw0IqgHMuiB5Iys8Q9qfIGS8yUyuOIjbELZFzdilBmblLlRaQSGGFmVMwgs9qpX0-DkyKk_UhUmm-eaN2-F6lHEMs6QjPnD9TiEIqlCBJKFi-2Ek1xkJKTbejB07C8ERUYmUKYSS2wI0fmPWjiFYlkisUEj4TEHyviqTWBXUENVidTZHOSl-m4hw0jIpS7dYRP95iiB-MIuoCOOhRDhDPJPLnhceRif_eZhbstiR64ic2Rz2PPqB6peGrdMEOmq7rJRTMYzxRBLi574qrqTv3Ty0FKNQaXeNrH7bPLK2d7u5LwkRnTDdbESfVNfZmYbGYfvn3PeZeQhy0G00]--></g></svg>