<svg xmlns="http://www.w3.org/2000/svg" xmlns:xlink="http://www.w3.org/1999/xlink" contentStyleType="text/css" data-diagram-type="DESCRIPTION" height="630px" preserveAspectRatio="none" style="width:289px;height:630px;background:#FFFFFF;" version="1.1" viewBox="0 0 289 630" width="289px" zoomAndPan="magnify"><defs><filter height="300%" id="f12qpy46f4t5ve" width="300%" x="-1" y="-1"><feGaussianBlur result="blurOut" stdDeviation="2"/><feColorMatrix in="blurOut" result="blurOut2" type="matrix" values="0 0 0 0 0 0 0 0 0 0 0 0 0 0 0 0 0 0 .4 0"/><feOffset dx="4" dy="4" in="blurOut2" result="blurOut3"/><feBlend in="SourceGraphic" in2="blurOut3" mode="normal"/></filter></defs><g><!--cluster GlassFish Server--><g class="cluster" data-entity="GlassFish Server" data-source-line="10" data-uid="ent0004" id="cluster_GlassFish Server"><polygon fill="none" filter="url(#f12qpy46f4t5ve)" points="23.5,194.839,33.5,184.839,230.5,184.839,230.5,509.839,220.5,519.839,23.5,519.839,23.5,194.839" style="stroke:#181818;stroke-width:1;"/><line style="stroke:#181818;stroke-width:1;" x1="220.5" x2="230.5" y1="194.839" y2="184.839"/><line style="stroke:#181818;stroke-width:1;" x1="23.5" x2="220.5" y1="194.839" y2="194.839"/><line style="stroke:#181818;stroke-width:1;" x1="220.5" x2="220.5" y1="194.839" y2="519.839"/><text fill="#000000" font-family="sans-serif" font-size="14" font-weight="bold" lengthAdjust="spacing" textLength="131.9473" x="57.0264" y="210.8342">GlassFish Server</text></g><!--entity Web--><g class="entity" data-entity="Web" data-source-line="11" data-uid="ent0005" id="entity_Web"><rect fill="#F1F1F1" filter="url(#f12qpy46f4t5ve)" height="52.5938" rx="2.5" ry="2.5" style="stroke:#181818;stroke-width:0.5;" width="124.207" x="64.5" y="224.839"/><text fill="#000000" font-family="sans-serif" font-size="14" lengthAdjust="spacing" textLength="104.207" x="74.5" y="247.8342">Web Container</text><text fill="#000000" font-family="sans-serif" font-size="14" lengthAdjust="spacing" textLength="94.2197" x="79.4937" y="264.131">(Servets, JSP)</text></g><!--entity EJB--><g class="entity" data-entity="EJB" data-source-line="12" data-uid="ent0006" id="entity_EJB"><rect fill="#F1F1F1" filter="url(#f12qpy46f4t5ve)" height="52.5938" rx="2.5" ry="2.5" style="stroke:#181818;stroke-width:0.5;" width="150.3545" x="51.5" y="337.839"/><text fill="#000000" font-family="sans-serif" font-size="14" lengthAdjust="spacing" textLength="95.4434" x="78.9556" y="360.8342">EJB Container</text><text fill="#000000" font-family="sans-serif" font-size="14" lengthAdjust="spacing" textLength="130.3545" x="61.5" y="377.131">(Enterprise Beans)</text></g><!--entity EE--><g class="entity" data-entity="EE" data-source-line="13" data-uid="ent0007" id="entity_EE"><rect fill="#F1F1F1" filter="url(#f12qpy46f4t5ve)" height="52.5938" rx="2.5" ry="2.5" style="stroke:#181818;stroke-width:0.5;" width="153.376" x="50" y="450.839"/><text fill="#000000" font-family="sans-serif" font-size="14" lengthAdjust="spacing" textLength="115.1992" x="69.0884" y="473.8342">Java EE Services</text><text fill="#000000" font-family="sans-serif" font-size="14" lengthAdjust="spacing" textLength="133.376" x="60" y="490.131">(JTA, JMS, JPA, etc.)</text></g><!--entity Internet--><g class="entity" data-entity="Internet" data-source-line="6" data-uid="ent0002" id="entity_Internet"><path d="M93.2718,14.7197 C96.3675,9.6856 100.2961,9.4204 104.1035,13.9103 C107.2115,7.7384 111.5558,7.8391 115.7975,12.7098 C118.7135,7.3872 122.9813,6.9097 126.5613,12.0251 C130.3098,7.1007 134.1667,6 138.154,11.7661 C143.1972,6.5027 147.4282,6.6514 150.2707,13.8977 C154.3283,8.7302 158.9861,9.0047 162.6725,14.3362 C170.0104,17.1756 171.7477,24.5317 165.4329,29.8071 C171.2375,36.2087 171.083,41.2924 163.087,45.6506 C161.1328,51.8112 155.599,52.2192 151.8502,47.5049 C148.9104,55.7781 144.4431,56.8202 138.3192,50.4464 C137.3868,56.1627 132.6934,58.3456 127.8054,55.0732 C123.2073,59.2713 117.9243,58.7315 115.9621,52.1714 C109.4423,57.0069 106.2172,54.3728 104.0099,47.6946 C99.8016,52.1502 94.7343,51.6818 92.0627,45.9011 C82.4047,44.9284 79.1838,37.7049 85.7799,30.2199 C79.6629,21.2376 82.7557,15.6625 93.2718,14.7197" fill="#F1F1F1" filter="url(#f12qpy46f4t5ve)" style="stroke:#181818;stroke-width:0.5;"/><text fill="#000000" font-family="sans-serif" font-size="14" lengthAdjust="spacing" textLength="55.8359" x="98.5" y="33.8342">Internet</text></g><!--entity HTTP--><g class="entity" data-entity="HTTP" data-source-line="8" data-uid="ent0003" id="entity_HTTP"><rect fill="#F1F1F1" filter="url(#f12qpy46f4t5ve)" height="52.5938" rx="2.5" ry="2.5" style="stroke:#181818;stroke-width:0.5;" width="132.7314" x="60" y="111.839"/><text fill="#000000" font-family="sans-serif" font-size="14" lengthAdjust="spacing" textLength="112.7314" x="70" y="134.8342">HTTP Connector</text><text fill="#000000" font-family="sans-serif" font-size="14" lengthAdjust="spacing" textLength="58.29" x="97.2207" y="151.131">(Grizzly)</text></g><!--entity DB--><g class="entity" data-entity="DB" data-source-line="16" data-uid="ent0008" id="entity_DB"><path d="M6,578.339 C6,568.339 49.4004,568.339 49.4004,568.339 C49.4004,568.339 92.8008,568.339 92.8008,578.339 L92.8008,603.6359 C92.8008,613.6359 49.4004,613.6359 49.4004,613.6359 C49.4004,613.6359 6,613.6359 6,603.6359 L6,578.339" fill="#F1F1F1" filter="url(#f12qpy46f4t5ve)" style="stroke:#181818;stroke-width:0.5;"/><path d="M6,578.339 C6,588.339 49.4004,588.339 49.4004,588.339 C49.4004,588.339 92.8008,588.339 92.8008,578.339" fill="none" style="stroke:#181818;stroke-width:0.5;"/><text fill="#000000" font-family="sans-serif" font-size="14" lengthAdjust="spacing" textLength="66.8008" x="16" y="605.3342">Database</text></g><!--entity External--><g class="entity" data-entity="External" data-source-line="17" data-uid="ent0009" id="entity_External"><path d="M131,563.839 L172,563.839 A3.75,3.75 0 0 1 174.5,566.339 L181.5,584.839 L277.8164,584.839 A2.5,2.5 0 0 1 280.3164,587.339 L280.3164,615.6359 A2.5,2.5 0 0 1 277.8164,618.1359 L131,618.1359 A2.5,2.5 0 0 1 128.5,615.6359 L128.5,566.339 A2.5,2.5 0 0 1 131,563.839" fill="#F1F1F1" filter="url(#f12qpy46f4t5ve)" style="stroke:#181818;stroke-width:0.5;"/><line style="stroke:#181818;stroke-width:0.5;" x1="128.5" x2="181.5" y1="584.839" y2="584.839"/><text fill="#000000" font-family="sans-serif" font-size="14" lengthAdjust="spacing" textLength="121.8164" x="138.5" y="604.8342">External Services</text></g><!--link Internet to HTTP--><g class="link" data-entity-1="Internet" data-entity-2="HTTP" data-source-line="19" data-uid="lnk10" id="link_Internet_HTTP"><path d="M126.5,51.849 C126.5,69.179 126.5,87.349 126.5,105.569" fill="none" id="Internet-to-HTTP" style="stroke:#181818;stroke-width:1;"/><polygon fill="#181818" points="126.5,111.569,130.5,102.569,126.5,106.569,122.5,102.569,126.5,111.569" style="stroke:#181818;stroke-width:1;"/></g><!--link HTTP to Web--><g class="link" data-entity-1="HTTP" data-entity-2="Web" data-source-line="20" data-uid="lnk11" id="link_HTTP_Web"><path d="M126.5,165.079 C126.5,183.019 126.5,200.829 126.5,218.729" fill="none" id="HTTP-to-Web" style="stroke:#181818;stroke-width:1;"/><polygon fill="#181818" points="126.5,224.729,130.5,215.729,126.5,219.729,122.5,215.729,126.5,224.729" style="stroke:#181818;stroke-width:1;"/></g><!--link Web to EJB--><g class="link" data-entity-1="Web" data-entity-2="EJB" data-source-line="21" data-uid="lnk12" id="link_Web_EJB"><path d="M126.5,278.079 C126.5,296.019 126.5,313.829 126.5,331.729" fill="none" id="Web-to-EJB" style="stroke:#181818;stroke-width:1;"/><polygon fill="#181818" points="126.5,337.729,130.5,328.729,126.5,332.729,122.5,328.729,126.5,337.729" style="stroke:#181818;stroke-width:1;"/></g><!--link EJB to EE--><g class="link" data-entity-1="EJB" data-entity-2="EE" data-source-line="22" data-uid="lnk13" id="link_EJB_EE"><path d="M126.5,391.079 C126.5,409.019 126.5,426.829 126.5,444.729" fill="none" id="EJB-to-EE" style="stroke:#181818;stroke-width:1;"/><polygon fill="#181818" points="126.5,450.729,130.5,441.729,126.5,445.729,122.5,441.729,126.5,450.729" style="stroke:#181818;stroke-width:1;"/></g><!--link EE to DB--><g class="link" data-entity-1="EE" data-entity-2="DB" data-source-line="23" data-uid="lnk14" id="link_EE_DB"><path d="M108.83,503.919 C95.43,523.339 80.5995,544.8019 67.8995,563.1919" fill="none" id="EE-to-DB" style="stroke:#181818;stroke-width:1;"/><polygon fill="#181818" points="64.49,568.129,72.8957,562.9964,67.3313,564.0148,66.3129,558.4504,64.49,568.129" style="stroke:#181818;stroke-width:1;"/></g><!--link EE to External--><g class="link" data-entity-1="EE" data-entity-2="External" data-source-line="24" data-uid="lnk15" id="link_EE_External"><path d="M144.39,503.919 C156.9,521.789 170.0987,561.674 182.7087,579.684" fill="none" id="EE-to-External" style="stroke:#181818;stroke-width:1;"/><polygon fill="#181818" points="186.15,584.599,184.2647,574.9323,183.2822,580.5032,177.7113,579.5208,186.15,584.599" style="stroke:#181818;stroke-width:1;"/></g><!--SRC=[NL31JiCm3BtxAwoUG08-0MbZPL09QL8hSU7YfTuMaIPJaevjY7_7IRinbeFr7B_tykBmgUsMF7KOui6mLAzLx3i3uM-oeTPzQRl6w7k-62ZNRPrb6-kizQmYsRMvfBIyejx4XlTnOlJQTi969OKzW3AkRx5uJPtbM205F3K0PpiiNffcWK_EMhbo_iFUpBq-7itXDalI5C2wLfXpGo4ywx31clsEVO7VW78kpDvvcRmYQSl9AnDZkCEgNWo6mhWMbTNqdwXCCRTU1yOfams3K5ZNmefsX6MPusZ5GRHLCv77tcef2q4SrSCeB-47eAL8InBZOZQYF9nDOULCorx2xDEEo9nD1_Lu2t3Q8TxVFmxRoGjCNVfQMa32AMtwLyObICY4v9qHdGr_0G00]--></g></svg>