<svg xmlns="http://www.w3.org/2000/svg" xmlns:xlink="http://www.w3.org/1999/xlink" contentStyleType="text/css" data-diagram-type="DESCRIPTION" height="598px" preserveAspectRatio="none" style="width:336px;height:598px;background:#FFFFFF;" version="1.1" viewBox="0 0 336 598" width="336px" zoomAndPan="magnify"><defs><filter height="300%" id="f1269ontp6nqz2" width="300%" x="-1" y="-1"><feGaussianBlur result="blurOut" stdDeviation="2"/><feColorMatrix in="blurOut" result="blurOut2" type="matrix" values="0 0 0 0 0 0 0 0 0 0 0 0 0 0 0 0 0 0 .4 0"/><feOffset dx="4" dy="4" in="blurOut2" result="blurOut3"/><feBlend in="SourceGraphic" in2="blurOut3" mode="normal"/></filter></defs><g><!--cluster Tomcat Server--><g class="cluster" data-entity="Tomcat Server" data-source-line="9" data-uid="ent0004" id="cluster_Tomcat Server"><polygon fill="none" filter="url(#f1269ontp6nqz2)" points="16,194.839,26,184.839,319,184.839,319,571.839,309,581.839,16,581.839,16,194.839" style="stroke:#181818;stroke-width:1;"/><line style="stroke:#181818;stroke-width:1;" x1="309" x2="319" y1="194.839" y2="184.839"/><line style="stroke:#181818;stroke-width:1;" x1="16" x2="309" y1="194.839" y2="194.839"/><line style="stroke:#181818;stroke-width:1;" x1="309" x2="309" y1="194.839" y2="581.839"/><text fill="#000000" font-family="sans-serif" font-size="14" font-weight="bold" lengthAdjust="spacing" textLength="115.0762" x="105.9619" y="210.8342">Tomcat Server</text></g><!--entity Engine--><g class="entity" data-entity="Engine" data-source-line="10" data-uid="ent0005" id="entity_Engine"><rect fill="#F1F1F1" filter="url(#f1269ontp6nqz2)" height="36.2969" rx="2.5" ry="2.5" style="stroke:#181818;stroke-width:0.5;" width="67.9814" x="145" y="224.839"/><text fill="#000000" font-family="sans-serif" font-size="14" lengthAdjust="spacing" textLength="47.9814" x="155" y="247.8342">Engine</text></g><!--entity Host--><g class="entity" data-entity="Host" data-source-line="11" data-uid="ent0006" id="entity_Host"><rect fill="#F1F1F1" filter="url(#f1269ontp6nqz2)" height="36.2969" rx="2.5" ry="2.5" style="stroke:#181818;stroke-width:0.5;" width="51.876" x="153" y="320.839"/><text fill="#000000" font-family="sans-serif" font-size="14" lengthAdjust="spacing" textLength="31.876" x="163" y="343.8342">Host</text></g><!--entity Context--><g class="entity" data-entity="Context" data-source-line="12" data-uid="ent0007" id="entity_Context"><rect fill="#F1F1F1" filter="url(#f1269ontp6nqz2)" height="36.2969" rx="2.5" ry="2.5" style="stroke:#181818;stroke-width:0.5;" width="75.0908" x="141.5" y="416.839"/><text fill="#000000" font-family="sans-serif" font-size="14" lengthAdjust="spacing" textLength="55.0908" x="151.5" y="439.8342">Context</text></g><!--entity Servlets--><g class="entity" data-entity="Servlets" data-source-line="13" data-uid="ent0008" id="entity_Servlets"><rect fill="#F1F1F1" filter="url(#f1269ontp6nqz2)" height="36.2969" rx="2.5" ry="2.5" style="stroke:#181818;stroke-width:0.5;" width="142.3975" x="32" y="521.339"/><text fill="#000000" font-family="sans-serif" font-size="14" lengthAdjust="spacing" textLength="122.3975" x="42" y="544.3342">Servlet Container</text></g><!--entity Jasper--><g class="entity" data-entity="Jasper" data-source-line="14" data-uid="ent0009" id="entity_Jasper"><rect fill="#F1F1F1" filter="url(#f1269ontp6nqz2)" height="52.5938" rx="2.5" ry="2.5" style="stroke:#181818;stroke-width:0.5;" width="93.8896" x="209" y="512.839"/><text fill="#000000" font-family="sans-serif" font-size="14" lengthAdjust="spacing" textLength="73.8896" x="219" y="535.8342">JSP Engine</text><text fill="#000000" font-family="sans-serif" font-size="14" lengthAdjust="spacing" textLength="54.1816" x="228.854" y="552.131">(Jasper)</text></g><!--entity Internet--><g class="entity" data-entity="Internet" data-source-line="6" data-uid="ent0002" id="entity_Internet"><path d="M145.7718,14.7197 C148.8675,9.6856 152.7961,9.4204 156.6035,13.9103 C159.7115,7.7384 164.0558,7.8391 168.2975,12.7098 C171.2135,7.3872 175.4813,6.9097 179.0613,12.0251 C182.8098,7.1007 186.6667,6 190.654,11.7661 C195.6972,6.5027 199.9282,6.6514 202.7707,13.8977 C206.8283,8.7302 211.4861,9.0047 215.1725,14.3362 C222.5104,17.1756 224.2477,24.5317 217.9329,29.8071 C223.7375,36.2087 223.583,41.2924 215.587,45.6506 C213.6328,51.8112 208.099,52.2192 204.3502,47.5049 C201.4104,55.7781 196.9431,56.8202 190.8192,50.4464 C189.8868,56.1627 185.1934,58.3456 180.3054,55.0732 C175.7073,59.2713 170.4243,58.7315 168.4621,52.1714 C161.9423,57.0069 158.7172,54.3728 156.5099,47.6946 C152.3016,52.1502 147.2343,51.6818 144.5627,45.9011 C134.9047,44.9284 131.6838,37.7049 138.2799,30.2199 C132.1629,21.2376 135.2557,15.6625 145.7718,14.7197" fill="#F1F1F1" filter="url(#f1269ontp6nqz2)" style="stroke:#181818;stroke-width:0.5;"/><text fill="#000000" font-family="sans-serif" font-size="14" lengthAdjust="spacing" textLength="55.8359" x="151" y="33.8342">Internet</text></g><!--entity Coyote--><g class="entity" data-entity="Coyote" data-source-line="8" data-uid="ent0003" id="entity_Coyote"><rect fill="#F1F1F1" filter="url(#f1269ontp6nqz2)" height="52.5938" rx="2.5" ry="2.5" style="stroke:#181818;stroke-width:0.5;" width="132.7314" x="112.5" y="111.839"/><text fill="#000000" font-family="sans-serif" font-size="14" lengthAdjust="spacing" textLength="112.7314" x="122.5" y="134.8342">HTTP Connector</text><text fill="#000000" font-family="sans-serif" font-size="14" lengthAdjust="spacing" textLength="60.2178" x="148.7568" y="151.131">(Coyote)</text></g><!--link Internet to Coyote--><g class="link" data-entity-1="Internet" data-entity-2="Coyote" data-source-line="17" data-uid="lnk10" id="link_Internet_Coyote"><path d="M179,51.849 C179,69.179 179,87.349 179,105.569" fill="none" id="Internet-to-Coyote" style="stroke:#181818;stroke-width:1;"/><polygon fill="#181818" points="179,111.569,183,102.569,179,106.569,175,102.569,179,111.569" style="stroke:#181818;stroke-width:1;"/></g><!--link Coyote to Engine--><g class="link" data-entity-1="Coyote" data-entity-2="Engine" data-source-line="18" data-uid="lnk11" id="link_Coyote_Engine"><path d="M179,164.939 C179,183.559 179,202.259 179,218.589" fill="none" id="Coyote-to-Engine" style="stroke:#181818;stroke-width:1;"/><polygon fill="#181818" points="179,224.589,183,215.589,179,219.589,175,215.589,179,224.589" style="stroke:#181818;stroke-width:1;"/></g><!--link Engine to Host--><g class="link" data-entity-1="Engine" data-entity-2="Host" data-source-line="19" data-uid="lnk12" id="link_Engine_Host"><path d="M179,261.079 C179,278.039 179,297.789 179,314.709" fill="none" id="Engine-to-Host" style="stroke:#181818;stroke-width:1;"/><polygon fill="#181818" points="179,320.709,183,311.709,179,315.709,175,311.709,179,320.709" style="stroke:#181818;stroke-width:1;"/></g><!--link Host to Context--><g class="link" data-entity-1="Host" data-entity-2="Context" data-source-line="20" data-uid="lnk13" id="link_Host_Context"><path d="M179,357.079 C179,374.039 179,393.789 179,410.709" fill="none" id="Host-to-Context" style="stroke:#181818;stroke-width:1;"/><polygon fill="#181818" points="179,416.709,183,407.709,179,411.709,175,407.709,179,416.709" style="stroke:#181818;stroke-width:1;"/></g><!--link Context to Servlets--><g class="link" data-entity-1="Context" data-entity-2="Servlets" data-source-line="21" data-uid="lnk14" id="link_Context_Servlets"><path d="M166.11,453.229 C152.05,472.189 133.2646,497.5301 119.2746,516.3901" fill="none" id="Context-to-Servlets" style="stroke:#181818;stroke-width:1;"/><polygon fill="#181818" points="115.7,521.209,124.2745,516.3637,118.6788,517.1933,117.8493,511.5976,115.7,521.209" style="stroke:#181818;stroke-width:1;"/></g><!--link Context to Jasper--><g class="link" data-entity-1="Context" data-entity-2="Jasper" data-source-line="22" data-uid="lnk15" id="link_Context_Jasper"><path d="M192.06,453.229 C204.33,469.559 219.2463,489.4118 233.1963,507.9818" fill="none" id="Context-to-Jasper" style="stroke:#181818;stroke-width:1;"/><polygon fill="#181818" points="236.8,512.779,234.5926,503.1808,233.7969,508.7814,228.1963,507.9857,236.8,512.779" style="stroke:#181818;stroke-width:1;"/></g><!--SRC=[NL31JiCm3BtdAwoUuB1VG48JqjXfKdlS9KfDYKZjod612V7lf4awglPWlpm_sy-D7vucAtQ4gBU0AOftEe_1nF_Ak-tvozC0AZDk2ex7YGb9szmhwDJI4BQI7j_i7BJ3RtqEVg0ngS6bW6AC2pptqBmkBq9jm4PO7yRSnq5pwheB79aeKInNUZZoZHKVSqV1XhXFoev7PnLQb4-K1duCf6ypwOK6JvZx2jmBJXoBaGNiYyc2falgseptacLpGCrbc-PB5bSsxjNdzb9zfAFEDauevQY2pQynwm-1m-5flRMapDGhIifCDhw4sb5irfovkvijMJR-0G00]--></g></svg>