<svg xmlns="http://www.w3.org/2000/svg" xmlns:xlink="http://www.w3.org/1999/xlink" contentStyleType="text/css" data-diagram-type="DESCRIPTION" height="627px" preserveAspectRatio="none" style="width:327px;height:627px;background:#FFFFFF;" version="1.1" viewBox="0 0 327 627" width="327px" zoomAndPan="magnify"><defs><filter height="300%" id="f1uw6gkh3nfzqd" width="300%" x="-1" y="-1"><feGaussianBlur result="blurOut" stdDeviation="2"/><feColorMatrix in="blurOut" result="blurOut2" type="matrix" values="0 0 0 0 0 0 0 0 0 0 0 0 0 0 0 0 0 0 .4 0"/><feOffset dx="4" dy="4" in="blurOut2" result="blurOut3"/><feBlend in="SourceGraphic" in2="blurOut3" mode="normal"/></filter></defs><g><!--cluster WebSphere Server--><g class="cluster" data-entity="WebSphere Server" data-source-line="10" data-uid="ent0004" id="cluster_WebSphere Server"><polygon fill="none" filter="url(#f1uw6gkh3nfzqd)" points="16,195.839,26,185.839,239,185.839,239,510.839,229,520.839,16,520.839,16,195.839" style="stroke:#181818;stroke-width:1;"/><line style="stroke:#181818;stroke-width:1;" x1="229" x2="239" y1="195.839" y2="185.839"/><line style="stroke:#181818;stroke-width:1;" x1="16" x2="229" y1="195.839" y2="195.839"/><line style="stroke:#181818;stroke-width:1;" x1="229" x2="229" y1="195.839" y2="520.839"/><text fill="#000000" font-family="sans-serif" font-size="14" font-weight="bold" lengthAdjust="spacing" textLength="147.8066" x="49.5967" y="211.8342">WebSphere Server</text></g><!--entity WebContainer--><g class="entity" data-entity="WebContainer" data-source-line="11" data-uid="ent0005" id="entity_WebContainer"><rect fill="#F1F1F1" filter="url(#f1uw6gkh3nfzqd)" height="52.5938" rx="2.5" ry="2.5" style="stroke:#181818;stroke-width:0.5;" width="148.0781" x="50" y="225.839"/><text fill="#000000" font-family="sans-serif" font-size="14" lengthAdjust="spacing" textLength="104.207" x="71.9355" y="248.8342">Web Container</text><text fill="#000000" font-family="sans-serif" font-size="14" lengthAdjust="spacing" textLength="128.0781" x="60" y="265.131">(Servlets, JSP, JSF)</text></g><!--entity BusinessLogic--><g class="entity" data-entity="BusinessLogic" data-source-line="12" data-uid="ent0006" id="entity_BusinessLogic"><rect fill="#F1F1F1" filter="url(#f1uw6gkh3nfzqd)" height="52.5938" rx="2.5" ry="2.5" style="stroke:#181818;stroke-width:0.5;" width="123.0244" x="65.5" y="338.839"/><text fill="#000000" font-family="sans-serif" font-size="14" lengthAdjust="spacing" textLength="103.0244" x="75.5" y="361.8342">Business Logic</text><text fill="#000000" font-family="sans-serif" font-size="14" lengthAdjust="spacing" textLength="67.0879" x="93.4683" y="378.131">(EJB, CDI)</text></g><!--entity Integration--><g class="entity" data-entity="Integration" data-source-line="13" data-uid="ent0007" id="entity_Integration"><rect fill="#F1F1F1" filter="url(#f1uw6gkh3nfzqd)" height="52.5938" rx="2.5" ry="2.5" style="stroke:#181818;stroke-width:0.5;" width="160.6289" x="46.5" y="451.839"/><text fill="#000000" font-family="sans-serif" font-size="14" lengthAdjust="spacing" textLength="140.6289" x="56.5" y="474.8342">Integration Services</text><text fill="#000000" font-family="sans-serif" font-size="14" lengthAdjust="spacing" textLength="98.2256" x="77.7017" y="491.131">(JMS, JPA, JTA)</text></g><!--entity Internet--><g class="entity" data-entity="Internet" data-source-line="6" data-uid="ent0002" id="entity_Internet"><path d="M53.7718,14.7197 C56.8675,9.6856 60.7961,9.4204 64.6035,13.9103 C67.7115,7.7384 72.0558,7.8391 76.2975,12.7098 C79.2135,7.3872 83.4813,6.9097 87.0613,12.0251 C90.8098,7.1007 94.6667,6 98.654,11.7661 C103.6972,6.5027 107.9282,6.6514 110.7707,13.8977 C114.8283,8.7302 119.4861,9.0047 123.1725,14.3362 C130.5104,17.1756 132.2477,24.5317 125.9329,29.8071 C131.7375,36.2087 131.583,41.2924 123.587,45.6506 C121.6328,51.8112 116.099,52.2192 112.3502,47.5049 C109.4104,55.7781 104.9431,56.8202 98.8192,50.4464 C97.8868,56.1627 93.1934,58.3456 88.3054,55.0732 C83.7073,59.2713 78.4243,58.7315 76.4621,52.1714 C69.9423,57.0069 66.7172,54.3728 64.5099,47.6946 C60.3016,52.1502 55.2343,51.6818 52.5627,45.9011 C42.9047,44.9284 39.6838,37.7049 46.2799,30.2199 C40.1629,21.2376 43.2557,15.6625 53.7718,14.7197" fill="#F1F1F1" filter="url(#f1uw6gkh3nfzqd)" style="stroke:#181818;stroke-width:0.5;"/><text fill="#000000" font-family="sans-serif" font-size="14" lengthAdjust="spacing" textLength="55.8359" x="59" y="33.8342">Internet</text></g><!--entity HTTPSrv--><g class="entity" data-entity="HTTPSrv" data-source-line="8" data-uid="ent0003" id="entity_HTTPSrv"><rect fill="#F1F1F1" filter="url(#f1uw6gkh3nfzqd)" height="36.2969" rx="2.5" ry="2.5" style="stroke:#181818;stroke-width:0.5;" width="122.833" x="25.5" y="120.839"/><text fill="#000000" font-family="sans-serif" font-size="14" lengthAdjust="spacing" textLength="102.833" x="35.5" y="143.8342">HTTP Endpoint</text></g><!--entity Admin--><g class="entity" data-entity="Admin" data-source-line="16" data-uid="ent0008" id="entity_Admin"><path d="M186,111.839 L227,111.839 A3.75,3.75 0 0 1 229.5,114.339 L236.5,132.839 L315.8906,132.839 A2.5,2.5 0 0 1 318.3906,135.339 L318.3906,163.6359 A2.5,2.5 0 0 1 315.8906,166.1359 L186,166.1359 A2.5,2.5 0 0 1 183.5,163.6359 L183.5,114.339 A2.5,2.5 0 0 1 186,111.839" fill="#F1F1F1" filter="url(#f1uw6gkh3nfzqd)" style="stroke:#181818;stroke-width:0.5;"/><line style="stroke:#181818;stroke-width:0.5;" x1="183.5" x2="236.5" y1="132.839" y2="132.839"/><text fill="#000000" font-family="sans-serif" font-size="14" lengthAdjust="spacing" textLength="104.8906" x="193.5" y="152.8342">Admin Console</text></g><!--entity DB--><g class="entity" data-entity="DB" data-source-line="17" data-uid="ent0009" id="entity_DB"><path d="M83.5,574.839 C83.5,564.839 126.9004,564.839 126.9004,564.839 C126.9004,564.839 170.3008,564.839 170.3008,574.839 L170.3008,600.1359 C170.3008,610.1359 126.9004,610.1359 126.9004,610.1359 C126.9004,610.1359 83.5,610.1359 83.5,600.1359 L83.5,574.839" fill="#F1F1F1" filter="url(#f1uw6gkh3nfzqd)" style="stroke:#181818;stroke-width:0.5;"/><path d="M83.5,574.839 C83.5,584.839 126.9004,584.839 126.9004,584.839 C126.9004,584.839 170.3008,584.839 170.3008,574.839" fill="none" style="stroke:#181818;stroke-width:0.5;"/><text fill="#000000" font-family="sans-serif" font-size="14" lengthAdjust="spacing" textLength="66.8008" x="93.5" y="601.8342">Database</text></g><!--link Internet to HTTPSrv--><g class="link" data-entity-1="Internet" data-entity-2="HTTPSrv" data-source-line="19" data-uid="lnk10" id="link_Internet_HTTPSrv"><path d="M87,51.959 C87,72.319 87,96.109 87,114.719" fill="none" id="Internet-to-HTTPSrv" style="stroke:#181818;stroke-width:1;"/><polygon fill="#181818" points="87,120.719,91,111.719,87,115.719,83,111.719,87,120.719" style="stroke:#181818;stroke-width:1;"/></g><!--link HTTPSrv to WebContainer--><g class="link" data-entity-1="HTTPSrv" data-entity-2="WebContainer" data-source-line="20" data-uid="lnk11" id="link_HTTPSrv_WebContainer"><path d="M92.78,157.259 C98.88,175.639 106.6608,199.0842 113.6208,220.0642" fill="none" id="HTTPSrv-to-WebContainer" style="stroke:#181818;stroke-width:1;"/><polygon fill="#181818" points="115.51,225.759,116.4727,215.9574,113.9356,221.0134,108.8796,218.4763,115.51,225.759" style="stroke:#181818;stroke-width:1;"/></g><!--link WebContainer to BusinessLogic--><g class="link" data-entity-1="WebContainer" data-entity-2="BusinessLogic" data-source-line="21" data-uid="lnk12" id="link_WebContainer_BusinessLogic"><path d="M124.7,279.079 C125.18,297.019 125.6558,314.8313 126.1458,332.7313" fill="none" id="WebContainer-to-BusinessLogic" style="stroke:#181818;stroke-width:1;"/><polygon fill="#181818" points="126.31,338.729,130.0622,329.623,126.1732,333.7309,122.0652,329.8419,126.31,338.729" style="stroke:#181818;stroke-width:1;"/></g><!--link BusinessLogic to Integration--><g class="link" data-entity-1="BusinessLogic" data-entity-2="Integration" data-source-line="22" data-uid="lnk13" id="link_BusinessLogic_Integration"><path d="M127,392.079 C127,410.019 127,427.829 127,445.729" fill="none" id="BusinessLogic-to-Integration" style="stroke:#181818;stroke-width:1;"/><polygon fill="#181818" points="127,451.729,131,442.729,127,446.729,123,442.729,127,451.729" style="stroke:#181818;stroke-width:1;"/></g><!--link Integration to DB--><g class="link" data-entity-1="Integration" data-entity-2="DB" data-source-line="23" data-uid="lnk14" id="link_Integration_DB"><path d="M127,504.969 C127,523.149 127,541.279 127,558.529" fill="none" id="Integration-to-DB" style="stroke:#181818;stroke-width:1;"/><polygon fill="#181818" points="127,564.529,131,555.529,127,559.529,123,555.529,127,564.529" style="stroke:#181818;stroke-width:1;"/></g><!--link Admin to WebContainer--><g class="link" data-entity-1="Admin" data-entity-2="WebContainer" data-source-line="24" data-uid="lnk15" id="link_Admin_WebContainer"><path d="M221.22,165.979 C200.7,183.999 178.0479,203.8794 157.6579,221.7894" fill="none" id="Admin-to-WebContainer" style="stroke:#181818;stroke-width:1;"/><polygon fill="#181818" points="153.15,225.749,162.5516,222.8149,156.9066,222.4494,157.2721,216.8043,153.15,225.749" style="stroke:#181818;stroke-width:1;"/></g><!--link Admin to BusinessLogic--><g class="link" data-entity-1="Admin" data-entity-2="BusinessLogic" data-source-line="25" data-uid="lnk16" id="link_Admin_BusinessLogic"><path d="M248.49,166.039 C244.76,195.239 235.8,243.069 215,278.839 C201.51,302.039 184.5766,319.2627 166.1966,334.6827" fill="none" id="Admin-to-BusinessLogic" style="stroke:#181818;stroke-width:1;"/><polygon fill="#181818" points="161.6,338.539,171.0658,335.8189,165.4305,335.3254,165.924,329.6901,161.6,338.539" style="stroke:#181818;stroke-width:1;"/></g><!--SRC=[PL1DQyCm3BthLuYSLcZ_mY3z66lOe930BhkuiPgQENAmdMvZxB_FTjiqwN9GBBsd9psv3yMTiA95vxyrXMXLxVjMWxiXHo7Df-86lUrf1DIcxGmJ-pBrMggzu4QFAP8EejU-eY-VQzLm6zXOXq0MeDQcbvXjOyRaCnGEhmd088VPSrNjSCEoCuhFj5WfxGc0ZGo4DzgNtP4iOKdsH3R37y3mZJG21LU6lL1CzfqV8b6JTtCiobqCJxEa77W3xLvZsRjGTWvVJAFg8B8fbdDShRVdrYkSqFlUQAonmYl3QKbLamiAnMiPXk_o4AfyDfpWmeHVW8FHaYnckMmLHmlEQ4h4L04flDWB5qQiBwy4hfS0rsFYOl4udEpoJxM9sN6IqAcVIPRmyQ9ZUn4BuyyB_njpAqyK_m00]--></g></svg>