<svg xmlns="http://www.w3.org/2000/svg" xmlns:xlink="http://www.w3.org/1999/xlink" contentStyleType="text/css" data-diagram-type="CLASS" height="423px" preserveAspectRatio="none" style="width:525px;height:423px;background:#FFFFFF;" version="1.1" viewBox="0 0 525 423" width="525px" zoomAndPan="magnify"><defs/><g><!--cluster javax--><g class="cluster" data-entity="javax" data-source-line="8" data-uid="ent0004" id="cluster_javax"><path d="M8.5,183 L51.3496,183 A3.75,3.75 0 0 1 53.8496,185.5 L60.8496,205.2969 L515.5,205.2969 A2.5,2.5 0 0 1 518,207.7969 L518,413.5 A2.5,2.5 0 0 1 515.5,416 L8.5,416 A2.5,2.5 0 0 1 6,413.5 L6,185.5 A2.5,2.5 0 0 1 8.5,183" fill="none" style="stroke:#000000;stroke-width:1.5;"/><line style="stroke:#000000;stroke-width:1.5;" x1="6" x2="60.8496" y1="205.2969" y2="205.2969"/><text fill="#000000" font-family="sans-serif" font-size="14" font-weight="bold" lengthAdjust="spacing" textLength="41.8496" x="10" y="197.9951">javax</text></g><!--cluster servlet--><g class="cluster" data-entity="servlet" data-source-line="8" data-uid="ent0005" id="cluster_servlet"><path d="M32.5,226 L88.3447,226 A3.75,3.75 0 0 1 90.8447,228.5 L97.8447,248.2969 L491.5,248.2969 A2.5,2.5 0 0 1 494,250.7969 L494,389.5 A2.5,2.5 0 0 1 491.5,392 L32.5,392 A2.5,2.5 0 0 1 30,389.5 L30,228.5 A2.5,2.5 0 0 1 32.5,226" fill="none" style="stroke:#000000;stroke-width:1.5;"/><line style="stroke:#000000;stroke-width:1.5;" x1="30" x2="97.8447" y1="248.2969" y2="248.2969"/><text fill="#000000" font-family="sans-serif" font-size="14" font-weight="bold" lengthAdjust="spacing" textLength="54.8447" x="34" y="240.9951">servlet</text></g><!--cluster http--><g class="cluster" data-entity="http" data-source-line="8" data-uid="ent0006" id="cluster_http"><path d="M56.5,269 L90.873,269 A3.75,3.75 0 0 1 93.373,271.5 L100.373,291.2969 L467.5,291.2969 A2.5,2.5 0 0 1 470,293.7969 L470,365.5 A2.5,2.5 0 0 1 467.5,368 L56.5,368 A2.5,2.5 0 0 1 54,365.5 L54,271.5 A2.5,2.5 0 0 1 56.5,269" fill="none" style="stroke:#000000;stroke-width:1.5;"/><line style="stroke:#000000;stroke-width:1.5;" x1="54" x2="100.373" y1="291.2969" y2="291.2969"/><text fill="#000000" font-family="sans-serif" font-size="14" font-weight="bold" lengthAdjust="spacing" textLength="33.373" x="58" y="283.9951">http</text></g><!--class HttpServletRequest--><g class="entity" data-entity="HttpServletRequest" data-source-line="8" data-uid="ent0003" id="entity_HttpServletRequest"><rect fill="#F1F1F1" height="48" rx="2.5" ry="2.5" style="stroke:#181818;stroke-width:0.5;" width="169.4229" x="69.5" y="304"/><ellipse cx="84.5" cy="320" fill="#ADD1B2" rx="11" ry="11" style="stroke:#181818;stroke-width:1;"/><path d="M87.4688,325.6406 Q86.8906,325.9375 86.25,326.0781 Q85.6094,326.2344 84.9063,326.2344 Q82.4063,326.2344 81.0781,324.5938 Q79.7656,322.9375 79.7656,319.8125 Q79.7656,316.6875 81.0781,315.0313 Q82.4063,313.375 84.9063,313.375 Q85.6094,313.375 86.25,313.5313 Q86.9063,313.6875 87.4688,313.9844 L87.4688,316.7031 Q86.8438,316.125 86.25,315.8594 Q85.6563,315.5781 85.0313,315.5781 Q83.6875,315.5781 83,316.6563 Q82.3125,317.7188 82.3125,319.8125 Q82.3125,321.9063 83,322.9844 Q83.6875,324.0469 85.0313,324.0469 Q85.6563,324.0469 86.25,323.7813 Q86.8438,323.5 87.4688,322.9219 L87.4688,325.6406 Z " fill="#000000"/><text fill="#000000" font-family="sans-serif" font-size="14" lengthAdjust="spacing" textLength="137.4229" x="98.5" y="324.8467">HttpServletRequest</text><line style="stroke:#181818;stroke-width:0.5;" x1="70.5" x2="237.9229" y1="336" y2="336"/><line style="stroke:#181818;stroke-width:0.5;" x1="70.5" x2="237.9229" y1="344" y2="344"/></g><!--class HttpServletResponse--><g class="entity" data-entity="HttpServletResponse" data-source-line="9" data-uid="ent0008" id="entity_HttpServletResponse"><rect fill="#F1F1F1" height="48" rx="2.5" ry="2.5" style="stroke:#181818;stroke-width:0.5;" width="179.793" x="274" y="304"/><ellipse cx="289" cy="320" fill="#ADD1B2" rx="11" ry="11" style="stroke:#181818;stroke-width:1;"/><path d="M291.9688,325.6406 Q291.3906,325.9375 290.75,326.0781 Q290.1094,326.2344 289.4063,326.2344 Q286.9063,326.2344 285.5781,324.5938 Q284.2656,322.9375 284.2656,319.8125 Q284.2656,316.6875 285.5781,315.0313 Q286.9063,313.375 289.4063,313.375 Q290.1094,313.375 290.75,313.5313 Q291.4063,313.6875 291.9688,313.9844 L291.9688,316.7031 Q291.3438,316.125 290.75,315.8594 Q290.1563,315.5781 289.5313,315.5781 Q288.1875,315.5781 287.5,316.6563 Q286.8125,317.7188 286.8125,319.8125 Q286.8125,321.9063 287.5,322.9844 Q288.1875,324.0469 289.5313,324.0469 Q290.1563,324.0469 290.75,323.7813 Q291.3438,323.5 291.9688,322.9219 L291.9688,325.6406 Z " fill="#000000"/><text fill="#000000" font-family="sans-serif" font-size="14" lengthAdjust="spacing" textLength="147.793" x="303" y="324.8467">HttpServletResponse</text><line style="stroke:#181818;stroke-width:0.5;" x1="275" x2="452.793" y1="336" y2="336"/><line style="stroke:#181818;stroke-width:0.5;" x1="275" x2="452.793" y1="344" y2="344"/></g><!--class RestServlet--><g class="entity" data-entity="RestServlet" data-source-line="1" data-uid="ent0002" id="entity_RestServlet"><rect fill="#F1F1F1" height="113.1875" rx="2.5" ry="2.5" style="stroke:#181818;stroke-width:0.5;" width="457.1973" x="29.5" y="7"/><ellipse cx="213.52" cy="23" fill="#ADD1B2" rx="11" ry="11" style="stroke:#181818;stroke-width:1;"/><path d="M216.4888,28.6406 Q215.9106,28.9375 215.27,29.0781 Q214.6294,29.2344 213.9263,29.2344 Q211.4263,29.2344 210.0981,27.5938 Q208.7856,25.9375 208.7856,22.8125 Q208.7856,19.6875 210.0981,18.0313 Q211.4263,16.375 213.9263,16.375 Q214.6294,16.375 215.27,16.5313 Q215.9263,16.6875 216.4888,16.9844 L216.4888,19.7031 Q215.8638,19.125 215.27,18.8594 Q214.6763,18.5781 214.0513,18.5781 Q212.7075,18.5781 212.02,19.6563 Q211.3325,20.7188 211.3325,22.8125 Q211.3325,24.9063 212.02,25.9844 Q212.7075,27.0469 214.0513,27.0469 Q214.6763,27.0469 215.27,26.7813 Q215.8638,26.5 216.4888,25.9219 L216.4888,28.6406 Z " fill="#000000"/><text fill="#000000" font-family="sans-serif" font-size="14" lengthAdjust="spacing" textLength="80.6572" x="234.02" y="27.8467">RestServlet</text><line style="stroke:#181818;stroke-width:0.5;" x1="30.5" x2="485.6973" y1="39" y2="39"/><line style="stroke:#181818;stroke-width:0.5;" x1="30.5" x2="485.6973" y1="47" y2="47"/><ellipse cx="40.5" cy="60.6484" fill="#84BE84" rx="3" ry="3" style="stroke:#038048;stroke-width:1;"/><text fill="#000000" font-family="sans-serif" font-size="14" lengthAdjust="spacing" textLength="410.1494" x="49.5" y="63.9951">doGet(HttpServletRequest req, HttpServletResponse resp)</text><ellipse cx="40.5" cy="76.9453" fill="#84BE84" rx="3" ry="3" style="stroke:#038048;stroke-width:1;"/><text fill="#000000" font-family="sans-serif" font-size="14" lengthAdjust="spacing" textLength="414.9893" x="49.5" y="80.292">doPost(HttpServletRequest req, HttpServletResponse resp)</text><ellipse cx="40.5" cy="93.2422" fill="#84BE84" rx="3" ry="3" style="stroke:#038048;stroke-width:1;"/><text fill="#000000" font-family="sans-serif" font-size="14" lengthAdjust="spacing" textLength="408.0029" x="49.5" y="96.5889">doPut(HttpServletRequest req, HttpServletResponse resp)</text><ellipse cx="40.5" cy="109.5391" fill="#84BE84" rx="3" ry="3" style="stroke:#038048;stroke-width:1;"/><text fill="#000000" font-family="sans-serif" font-size="14" lengthAdjust="spacing" textLength="431.1973" x="49.5" y="112.8857">doDelete(HttpServletRequest req, HttpServletResponse resp)</text></g><!--link RestServlet to HttpServletRequest--><g class="link" data-entity-1="RestServlet" data-entity-2="HttpServletRequest" data-source-line="8" data-uid="lnk7" id="link_RestServlet_HttpServletRequest"><path codeLine="8" d="M235.94,120.17 C213.35,177.21 181.5095,257.5516 165.3495,298.3516" fill="none" id="RestServlet-to-HttpServletRequest" style="stroke:#181818;stroke-width:1;stroke-dasharray:7,7;"/><polygon fill="#181818" points="163.14,303.93,170.1731,297.0354,164.9812,299.2814,162.7353,294.0895,163.14,303.93" style="stroke:#181818;stroke-width:1;"/><text fill="#000000" font-family="sans-serif" font-size="13" lengthAdjust="spacing" textLength="61.1978" x="223" y="163.0669">haszn&#225;lja</text></g><!--link RestServlet to HttpServletResponse--><g class="link" data-entity-1="RestServlet" data-entity-2="HttpServletResponse" data-source-line="9" data-uid="lnk9" id="link_RestServlet_HttpServletResponse"><path codeLine="9" d="M280.84,120.13 C284.9,130.07 289.08,140.34 293,150 C315.32,205.08 339.0268,264.3671 352.5268,298.2071" fill="none" id="RestServlet-to-HttpServletResponse" style="stroke:#181818;stroke-width:1;stroke-dasharray:7,7;"/><polygon fill="#181818" points="354.75,303.78,355.1304,293.9385,352.8973,299.1359,347.6999,296.9028,354.75,303.78" style="stroke:#181818;stroke-width:1;"/><text fill="#000000" font-family="sans-serif" font-size="13" lengthAdjust="spacing" textLength="61.1978" x="299" y="163.0669">haszn&#225;lja</text></g><!--SRC=[Iyv9B2vM24ejBWbEBIhBIIrHgEPIKD1EoNTFBT7mA2afW0e7fHQM0XKf5AKMwYYWY1SNvESLfm8bYWiq8Le3yel9rrjAjbQNLA14AXcwQxcua0D0JyzE8IknBB52hnWYefS1rAg7nLmhXOp4uggymmjpiX99DWBg11Gp0000]--></g></svg>