<svg xmlns="http://www.w3.org/2000/svg" xmlns:xlink="http://www.w3.org/1999/xlink" contentStyleType="text/css" data-diagram-type="CLASS" height="409px" preserveAspectRatio="none" style="width:471px;height:409px;background:#FFFFFF;" version="1.1" viewBox="0 0 471 409" width="471px" zoomAndPan="magnify"><defs/><g><!--class Main--><g class="entity" data-entity="Main" data-source-line="1" data-uid="ent0002" id="entity_Main"><rect fill="#F1F1F1" height="64.2969" rx="2.5" ry="2.5" style="stroke:#181818;stroke-width:0.5;" width="159.5742" x="155.5" y="7"/><ellipse cx="214.3267" cy="23" fill="#ADD1B2" rx="11" ry="11" style="stroke:#181818;stroke-width:1;"/><path d="M217.2954,28.6406 Q216.7173,28.9375 216.0767,29.0781 Q215.436,29.2344 214.7329,29.2344 Q212.2329,29.2344 210.9048,27.5938 Q209.5923,25.9375 209.5923,22.8125 Q209.5923,19.6875 210.9048,18.0313 Q212.2329,16.375 214.7329,16.375 Q215.436,16.375 216.0767,16.5313 Q216.7329,16.6875 217.2954,16.9844 L217.2954,19.7031 Q216.6704,19.125 216.0767,18.8594 Q215.4829,18.5781 214.8579,18.5781 Q213.5142,18.5781 212.8267,19.6563 Q212.1392,20.7188 212.1392,22.8125 Q212.1392,24.9063 212.8267,25.9844 Q213.5142,27.0469 214.8579,27.0469 Q215.4829,27.0469 216.0767,26.7813 Q216.6704,26.5 217.2954,25.9219 L217.2954,28.6406 Z " fill="#000000"/><text fill="#000000" font-family="sans-serif" font-size="14" lengthAdjust="spacing" textLength="33.4209" x="234.8267" y="27.8467">Main</text><line style="stroke:#181818;stroke-width:0.5;" x1="156.5" x2="314.0742" y1="39" y2="39"/><line style="stroke:#181818;stroke-width:0.5;" x1="156.5" x2="314.0742" y1="47" y2="47"/><ellipse cx="166.5" cy="60.6484" fill="#84BE84" rx="3" ry="3" style="stroke:#038048;stroke-width:1;"/><text fill="#000000" font-family="sans-serif" font-size="14" lengthAdjust="spacing" textLength="133.5742" x="175.5" y="63.9951">main(String[] args)</text></g><!--class RestServlet--><g class="entity" data-entity="RestServlet" data-source-line="5" data-uid="ent0003" id="entity_RestServlet"><rect fill="#F1F1F1" height="129.4844" rx="2.5" ry="2.5" style="stroke:#181818;stroke-width:0.5;" width="457.1973" x="7" y="148"/><ellipse cx="191.02" cy="164" fill="#ADD1B2" rx="11" ry="11" style="stroke:#181818;stroke-width:1;"/><path d="M193.9888,169.6406 Q193.4106,169.9375 192.77,170.0781 Q192.1294,170.2344 191.4263,170.2344 Q188.9263,170.2344 187.5981,168.5938 Q186.2856,166.9375 186.2856,163.8125 Q186.2856,160.6875 187.5981,159.0313 Q188.9263,157.375 191.4263,157.375 Q192.1294,157.375 192.77,157.5313 Q193.4263,157.6875 193.9888,157.9844 L193.9888,160.7031 Q193.3638,160.125 192.77,159.8594 Q192.1763,159.5781 191.5513,159.5781 Q190.2075,159.5781 189.52,160.6563 Q188.8325,161.7188 188.8325,163.8125 Q188.8325,165.9063 189.52,166.9844 Q190.2075,168.0469 191.5513,168.0469 Q192.1763,168.0469 192.77,167.7813 Q193.3638,167.5 193.9888,166.9219 L193.9888,169.6406 Z " fill="#000000"/><text fill="#000000" font-family="sans-serif" font-size="14" lengthAdjust="spacing" textLength="80.6572" x="211.52" y="168.8467">RestServlet</text><line style="stroke:#181818;stroke-width:0.5;" x1="8" x2="463.1973" y1="180" y2="180"/><line style="stroke:#181818;stroke-width:0.5;" x1="8" x2="463.1973" y1="188" y2="188"/><rect fill="#F24D5C" height="6" style="stroke:#C82930;stroke-width:1;" width="6" x="15" y="198.6484"/><text fill="#000000" font-family="sans-serif" font-size="14" lengthAdjust="spacing" textLength="351.6748" x="27" y="204.9951">readRequestBody(HttpServletRequest req): String</text><ellipse cx="18" cy="217.9453" fill="#84BE84" rx="3" ry="3" style="stroke:#038048;stroke-width:1;"/><text fill="#000000" font-family="sans-serif" font-size="14" lengthAdjust="spacing" textLength="410.1494" x="27" y="221.292">doGet(HttpServletRequest req, HttpServletResponse resp)</text><ellipse cx="18" cy="234.2422" fill="#84BE84" rx="3" ry="3" style="stroke:#038048;stroke-width:1;"/><text fill="#000000" font-family="sans-serif" font-size="14" lengthAdjust="spacing" textLength="414.9893" x="27" y="237.5889">doPost(HttpServletRequest req, HttpServletResponse resp)</text><ellipse cx="18" cy="250.5391" fill="#84BE84" rx="3" ry="3" style="stroke:#038048;stroke-width:1;"/><text fill="#000000" font-family="sans-serif" font-size="14" lengthAdjust="spacing" textLength="408.0029" x="27" y="253.8857">doPut(HttpServletRequest req, HttpServletResponse resp)</text><ellipse cx="18" cy="266.8359" fill="#84BE84" rx="3" ry="3" style="stroke:#038048;stroke-width:1;"/><text fill="#000000" font-family="sans-serif" font-size="14" lengthAdjust="spacing" textLength="431.1973" x="27" y="270.1826">doDelete(HttpServletRequest req, HttpServletResponse resp)</text></g><!--class HttpServletRequest--><g class="entity" data-entity="HttpServletRequest" data-source-line="14" data-uid="ent0005" id="entity_HttpServletRequest"><rect fill="#F1F1F1" height="48" rx="2.5" ry="2.5" style="stroke:#181818;stroke-width:0.5;" width="169.4229" x="46" y="354"/><ellipse cx="61" cy="370" fill="#ADD1B2" rx="11" ry="11" style="stroke:#181818;stroke-width:1;"/><path d="M63.9688,375.6406 Q63.3906,375.9375 62.75,376.0781 Q62.1094,376.2344 61.4063,376.2344 Q58.9063,376.2344 57.5781,374.5938 Q56.2656,372.9375 56.2656,369.8125 Q56.2656,366.6875 57.5781,365.0313 Q58.9063,363.375 61.4063,363.375 Q62.1094,363.375 62.75,363.5313 Q63.4063,363.6875 63.9688,363.9844 L63.9688,366.7031 Q63.3438,366.125 62.75,365.8594 Q62.1563,365.5781 61.5313,365.5781 Q60.1875,365.5781 59.5,366.6563 Q58.8125,367.7188 58.8125,369.8125 Q58.8125,371.9063 59.5,372.9844 Q60.1875,374.0469 61.5313,374.0469 Q62.1563,374.0469 62.75,373.7813 Q63.3438,373.5 63.9688,372.9219 L63.9688,375.6406 Z " fill="#000000"/><text fill="#000000" font-family="sans-serif" font-size="14" lengthAdjust="spacing" textLength="137.4229" x="75" y="374.8467">HttpServletRequest</text><line style="stroke:#181818;stroke-width:0.5;" x1="47" x2="214.4229" y1="386" y2="386"/><line style="stroke:#181818;stroke-width:0.5;" x1="47" x2="214.4229" y1="394" y2="394"/></g><!--class HttpServletResponse--><g class="entity" data-entity="HttpServletResponse" data-source-line="15" data-uid="ent0007" id="entity_HttpServletResponse"><rect fill="#F1F1F1" height="48" rx="2.5" ry="2.5" style="stroke:#181818;stroke-width:0.5;" width="179.793" x="250.5" y="354"/><ellipse cx="265.5" cy="370" fill="#ADD1B2" rx="11" ry="11" style="stroke:#181818;stroke-width:1;"/><path d="M268.4688,375.6406 Q267.8906,375.9375 267.25,376.0781 Q266.6094,376.2344 265.9063,376.2344 Q263.4063,376.2344 262.0781,374.5938 Q260.7656,372.9375 260.7656,369.8125 Q260.7656,366.6875 262.0781,365.0313 Q263.4063,363.375 265.9063,363.375 Q266.6094,363.375 267.25,363.5313 Q267.9063,363.6875 268.4688,363.9844 L268.4688,366.7031 Q267.8438,366.125 267.25,365.8594 Q266.6563,365.5781 266.0313,365.5781 Q264.6875,365.5781 264,366.6563 Q263.3125,367.7188 263.3125,369.8125 Q263.3125,371.9063 264,372.9844 Q264.6875,374.0469 266.0313,374.0469 Q266.6563,374.0469 267.25,373.7813 Q267.8438,373.5 268.4688,372.9219 L268.4688,375.6406 Z " fill="#000000"/><text fill="#000000" font-family="sans-serif" font-size="14" lengthAdjust="spacing" textLength="147.793" x="279.5" y="374.8467">HttpServletResponse</text><line style="stroke:#181818;stroke-width:0.5;" x1="251.5" x2="429.293" y1="386" y2="386"/><line style="stroke:#181818;stroke-width:0.5;" x1="251.5" x2="429.293" y1="394" y2="394"/></g><!--link Main to RestServlet--><g class="link" data-entity-1="Main" data-entity-2="RestServlet" data-source-line="13" data-uid="lnk4" id="link_Main_RestServlet"><path codeLine="13" d="M235.5,71.06 C235.5,92.49 235.5,115.74 235.5,142" fill="none" id="Main-to-RestServlet" style="stroke:#181818;stroke-width:1;"/><polygon fill="#181818" points="235.5,148,239.5,139,235.5,143,231.5,139,235.5,148" style="stroke:#181818;stroke-width:1;"/><text fill="#000000" font-family="sans-serif" font-size="13" lengthAdjust="spacing" textLength="61.1978" x="236.5" y="114.0669">haszn&#225;lja</text></g><!--link RestServlet to HttpServletRequest--><g class="link" data-entity-1="RestServlet" data-entity-2="HttpServletRequest" data-source-line="14" data-uid="lnk6" id="link_RestServlet_HttpServletRequest"><path codeLine="14" d="M194.6,277.18 C177.33,304.08 161.533,328.6819 148.723,348.6219" fill="none" id="RestServlet-to-HttpServletRequest" style="stroke:#181818;stroke-width:1;stroke-dasharray:7,7;"/><polygon fill="#181818" points="145.48,353.67,153.7099,348.2599,148.1825,349.4633,146.9791,343.9359,145.48,353.67" style="stroke:#181818;stroke-width:1;"/><text fill="#000000" font-family="sans-serif" font-size="13" lengthAdjust="spacing" textLength="61.1978" x="175.5" y="320.0669">haszn&#225;lja</text></g><!--link RestServlet to HttpServletResponse--><g class="link" data-entity-1="RestServlet" data-entity-2="HttpServletResponse" data-source-line="15" data-uid="lnk8" id="link_RestServlet_HttpServletResponse"><path codeLine="15" d="M276.4,277.18 C293.67,304.08 309.467,328.6819 322.277,348.6219" fill="none" id="RestServlet-to-HttpServletResponse" style="stroke:#181818;stroke-width:1;stroke-dasharray:7,7;"/><polygon fill="#181818" points="325.52,353.67,324.0209,343.9359,322.8175,349.4633,317.2901,348.2599,325.52,353.67" style="stroke:#181818;stroke-width:1;"/><text fill="#000000" font-family="sans-serif" font-size="13" lengthAdjust="spacing" textLength="61.1978" x="304.5" y="320.0669">haszn&#225;lja</text></g><!--SRC=[Iyv9B2vMy4tCp5Eevb9GqCu5iZI2IueoyzAZOnKIYzABDRbgkRYImSg2KejBWbEBod9IIy2gTOjI4rE2KWjBWU9E-IcL6Xub9GLG1L1XXQBKGaqh1OY980jIyjrJIt0er5504IykoCyhJWLA51TeGhG6v1UJhxUKRAqkgK29L39q0qCE7BIwkdOeWMUba95ON9LtU65ELY8NieIUdfq25ck8Lm-r7aK30000]--></g></svg>