<svg xmlns="http://www.w3.org/2000/svg" xmlns:xlink="http://www.w3.org/1999/xlink" contentStyleType="text/css" data-diagram-type="CLASS" height="599px" preserveAspectRatio="none" style="width:442px;height:599px;background:#FFFFFF;" version="1.1" viewBox="0 0 442 599" width="442px" zoomAndPan="magnify"><defs/><g><!--cluster jakarta--><g class="cluster" data-entity="jakarta" data-source-line="11" data-uid="ent0005" id="cluster_jakarta"><path d="M8.5,292 L65.5479,292 A3.75,3.75 0 0 1 68.0479,294.5 L75.0479,314.2969 L432.5,314.2969 A2.5,2.5 0 0 1 435,316.7969 L435,589.5 A2.5,2.5 0 0 1 432.5,592 L8.5,592 A2.5,2.5 0 0 1 6,589.5 L6,294.5 A2.5,2.5 0 0 1 8.5,292" fill="none" style="stroke:#000000;stroke-width:1.5;"/><line style="stroke:#000000;stroke-width:1.5;" x1="6" x2="75.0479" y1="314.2969" y2="314.2969"/><text fill="#000000" font-family="sans-serif" font-size="14" font-weight="bold" lengthAdjust="spacing" textLength="56.0479" x="10" y="306.9951">jakarta</text></g><!--cluster ws--><g class="cluster" data-entity="ws" data-source-line="11" data-uid="ent0006" id="cluster_ws"><path d="M32.5,335 L54.7666,335 A3.75,3.75 0 0 1 57.2666,337.5 L64.2666,357.2969 L408.5,357.2969 A2.5,2.5 0 0 1 411,359.7969 L411,565.5 A2.5,2.5 0 0 1 408.5,568 L32.5,568 A2.5,2.5 0 0 1 30,565.5 L30,337.5 A2.5,2.5 0 0 1 32.5,335" fill="none" style="stroke:#000000;stroke-width:1.5;"/><line style="stroke:#000000;stroke-width:1.5;" x1="30" x2="64.2666" y1="357.2969" y2="357.2969"/><text fill="#000000" font-family="sans-serif" font-size="14" font-weight="bold" lengthAdjust="spacing" textLength="21.2666" x="34" y="349.9951">ws</text></g><!--cluster rs--><g class="cluster" data-entity="rs" data-source-line="11" data-uid="ent0007" id="cluster_rs"><path d="M56.5,378 L72.7373,378 A3.75,3.75 0 0 1 75.2373,380.5 L82.2373,400.2969 L384.5,400.2969 A2.5,2.5 0 0 1 387,402.7969 L387,541.5 A2.5,2.5 0 0 1 384.5,544 L56.5,544 A2.5,2.5 0 0 1 54,541.5 L54,380.5 A2.5,2.5 0 0 1 56.5,378" fill="none" style="stroke:#000000;stroke-width:1.5;"/><line style="stroke:#000000;stroke-width:1.5;" x1="54" x2="82.2373" y1="400.2969" y2="400.2969"/><text fill="#000000" font-family="sans-serif" font-size="14" font-weight="bold" lengthAdjust="spacing" textLength="15.2373" x="58" y="392.9951">rs</text></g><!--cluster core--><g class="cluster" data-entity="core" data-source-line="11" data-uid="ent0008" id="cluster_core"><path d="M80.5,421 L115.8164,421 A3.75,3.75 0 0 1 118.3164,423.5 L125.3164,443.2969 L360.5,443.2969 A2.5,2.5 0 0 1 363,445.7969 L363,517.5 A2.5,2.5 0 0 1 360.5,520 L80.5,520 A2.5,2.5 0 0 1 78,517.5 L78,423.5 A2.5,2.5 0 0 1 80.5,421" fill="none" style="stroke:#000000;stroke-width:1.5;"/><line style="stroke:#000000;stroke-width:1.5;" x1="78" x2="125.3164" y1="443.2969" y2="443.2969"/><text fill="#000000" font-family="sans-serif" font-size="14" font-weight="bold" lengthAdjust="spacing" textLength="34.3164" x="82" y="435.9951">core</text></g><!--class Application--><g class="entity" data-entity="Application" data-source-line="11" data-uid="ent0004" id="entity_Application"><rect fill="#F1F1F1" height="48" rx="2.5" ry="2.5" style="stroke:#181818;stroke-width:0.5;" width="110.2236" x="94" y="456"/><ellipse cx="109" cy="472" fill="#ADD1B2" rx="11" ry="11" style="stroke:#181818;stroke-width:1;"/><path d="M111.9688,477.6406 Q111.3906,477.9375 110.75,478.0781 Q110.1094,478.2344 109.4063,478.2344 Q106.9063,478.2344 105.5781,476.5938 Q104.2656,474.9375 104.2656,471.8125 Q104.2656,468.6875 105.5781,467.0313 Q106.9063,465.375 109.4063,465.375 Q110.1094,465.375 110.75,465.5313 Q111.4063,465.6875 111.9688,465.9844 L111.9688,468.7031 Q111.3438,468.125 110.75,467.8594 Q110.1563,467.5781 109.5313,467.5781 Q108.1875,467.5781 107.5,468.6563 Q106.8125,469.7188 106.8125,471.8125 Q106.8125,473.9063 107.5,474.9844 Q108.1875,476.0469 109.5313,476.0469 Q110.1563,476.0469 110.75,475.7813 Q111.3438,475.5 111.9688,474.9219 L111.9688,477.6406 Z " fill="#000000"/><text fill="#000000" font-family="sans-serif" font-size="14" lengthAdjust="spacing" textLength="78.2236" x="123" y="476.8467">Application</text><line style="stroke:#181818;stroke-width:0.5;" x1="95" x2="203.2236" y1="488" y2="488"/><line style="stroke:#181818;stroke-width:0.5;" x1="95" x2="203.2236" y1="496" y2="496"/></g><!--class MediaType--><g class="entity" data-entity="MediaType" data-source-line="12" data-uid="ent0010" id="entity_MediaType"><rect fill="#F1F1F1" height="48" rx="2.5" ry="2.5" style="stroke:#181818;stroke-width:0.5;" width="108.3848" x="239" y="456"/><ellipse cx="254" cy="472" fill="#ADD1B2" rx="11" ry="11" style="stroke:#181818;stroke-width:1;"/><path d="M256.9688,477.6406 Q256.3906,477.9375 255.75,478.0781 Q255.1094,478.2344 254.4063,478.2344 Q251.9063,478.2344 250.5781,476.5938 Q249.2656,474.9375 249.2656,471.8125 Q249.2656,468.6875 250.5781,467.0313 Q251.9063,465.375 254.4063,465.375 Q255.1094,465.375 255.75,465.5313 Q256.4063,465.6875 256.9688,465.9844 L256.9688,468.7031 Q256.3438,468.125 255.75,467.8594 Q255.1563,467.5781 254.5313,467.5781 Q253.1875,467.5781 252.5,468.6563 Q251.8125,469.7188 251.8125,471.8125 Q251.8125,473.9063 252.5,474.9844 Q253.1875,476.0469 254.5313,476.0469 Q255.1563,476.0469 255.75,475.7813 Q256.3438,475.5 256.9688,474.9219 L256.9688,477.6406 Z " fill="#000000"/><text fill="#000000" font-family="sans-serif" font-size="14" lengthAdjust="spacing" textLength="76.3848" x="268" y="476.8467">MediaType</text><line style="stroke:#181818;stroke-width:0.5;" x1="240" x2="346.3848" y1="488" y2="488"/><line style="stroke:#181818;stroke-width:0.5;" x1="240" x2="346.3848" y1="496" y2="496"/></g><!--class HelloResource--><g class="entity" data-entity="HelloResource" data-source-line="1" data-uid="ent0002" id="entity_HelloResource"><rect fill="#F1F1F1" height="113.1875" rx="2.5" ry="2.5" style="stroke:#181818;stroke-width:0.5;" width="231.3584" x="105.5" y="7"/><ellipse cx="166.6167" cy="23" fill="#ADD1B2" rx="11" ry="11" style="stroke:#181818;stroke-width:1;"/><path d="M169.5854,28.6406 Q169.0073,28.9375 168.3667,29.0781 Q167.7261,29.2344 167.0229,29.2344 Q164.5229,29.2344 163.1948,27.5938 Q161.8823,25.9375 161.8823,22.8125 Q161.8823,19.6875 163.1948,18.0313 Q164.5229,16.375 167.0229,16.375 Q167.7261,16.375 168.3667,16.5313 Q169.0229,16.6875 169.5854,16.9844 L169.5854,19.7031 Q168.9604,19.125 168.3667,18.8594 Q167.7729,18.5781 167.1479,18.5781 Q165.8042,18.5781 165.1167,19.6563 Q164.4292,20.7188 164.4292,22.8125 Q164.4292,24.9063 165.1167,25.9844 Q165.8042,27.0469 167.1479,27.0469 Q167.7729,27.0469 168.3667,26.7813 Q168.9604,26.5 169.5854,25.9219 L169.5854,28.6406 Z " fill="#000000"/><text fill="#000000" font-family="sans-serif" font-size="14" lengthAdjust="spacing" textLength="100.625" x="187.1167" y="27.8467">HelloResource</text><line style="stroke:#181818;stroke-width:0.5;" x1="106.5" x2="335.8584" y1="39" y2="39"/><line style="stroke:#181818;stroke-width:0.5;" x1="106.5" x2="335.8584" y1="47" y2="47"/><ellipse cx="116.5" cy="60.6484" fill="#84BE84" rx="3" ry="3" style="stroke:#038048;stroke-width:1;"/><text fill="#000000" font-family="sans-serif" font-size="14" lengthAdjust="spacing" textLength="120.3467" x="125.5" y="63.9951">getHello(): String</text><ellipse cx="116.5" cy="76.9453" fill="#84BE84" rx="3" ry="3" style="stroke:#038048;stroke-width:1;"/><text fill="#000000" font-family="sans-serif" font-size="14" lengthAdjust="spacing" textLength="205.3584" x="125.5" y="80.292">postHello(String data): String</text><ellipse cx="116.5" cy="93.2422" fill="#84BE84" rx="3" ry="3" style="stroke:#038048;stroke-width:1;"/><text fill="#000000" font-family="sans-serif" font-size="14" lengthAdjust="spacing" textLength="198.3721" x="125.5" y="96.5889">putHello(String data): String</text><ellipse cx="116.5" cy="109.5391" fill="#84BE84" rx="3" ry="3" style="stroke:#038048;stroke-width:1;"/><text fill="#000000" font-family="sans-serif" font-size="14" lengthAdjust="spacing" textLength="141.4629" x="125.5" y="112.8857">deleteHello(): String</text></g><!--class RestApplication--><g class="entity" data-entity="RestApplication" data-source-line="8" data-uid="ent0003" id="entity_RestApplication"><rect fill="#F1F1F1" height="48" rx="2.5" ry="2.5" style="stroke:#181818;stroke-width:0.5;" width="141.3477" x="80.5" y="197"/><ellipse cx="95.5" cy="213" fill="#ADD1B2" rx="11" ry="11" style="stroke:#181818;stroke-width:1;"/><path d="M98.4688,218.6406 Q97.8906,218.9375 97.25,219.0781 Q96.6094,219.2344 95.9063,219.2344 Q93.4063,219.2344 92.0781,217.5938 Q90.7656,215.9375 90.7656,212.8125 Q90.7656,209.6875 92.0781,208.0313 Q93.4063,206.375 95.9063,206.375 Q96.6094,206.375 97.25,206.5313 Q97.9063,206.6875 98.4688,206.9844 L98.4688,209.7031 Q97.8438,209.125 97.25,208.8594 Q96.6563,208.5781 96.0313,208.5781 Q94.6875,208.5781 94,209.6563 Q93.3125,210.7188 93.3125,212.8125 Q93.3125,214.9063 94,215.9844 Q94.6875,217.0469 96.0313,217.0469 Q96.6563,217.0469 97.25,216.7813 Q97.8438,216.5 98.4688,215.9219 L98.4688,218.6406 Z " fill="#000000"/><text fill="#000000" font-family="sans-serif" font-size="14" lengthAdjust="spacing" textLength="109.3477" x="109.5" y="217.8467">RestApplication</text><line style="stroke:#181818;stroke-width:0.5;" x1="81.5" x2="220.8477" y1="229" y2="229"/><line style="stroke:#181818;stroke-width:0.5;" x1="81.5" x2="220.8477" y1="237" y2="237"/></g><!--link RestApplication to Application--><g class="link" data-entity-1="RestApplication" data-entity-2="Application" data-source-line="11" data-uid="lnk9" id="link_RestApplication_Application"><path codeLine="11" d="M150.82,245.26 C150.44,294.19 149.7004,389.2605 149.3204,437.9805" fill="none" id="RestApplication-to-Application" style="stroke:#181818;stroke-width:1;stroke-dasharray:7,7;"/><polygon fill="none" points="149.18,455.98,155.3202,438.0273,143.3206,437.9338,149.18,455.98" style="stroke:#181818;stroke-width:1;"/></g><!--link HelloResource to MediaType--><g class="link" data-entity-1="HelloResource" data-entity-2="MediaType" data-source-line="12" data-uid="lnk11" id="link_HelloResource_MediaType"><path codeLine="12" d="M230.71,120.4 C246.68,212.33 276.7927,385.6986 287.9127,449.6886" fill="none" id="HelloResource-to-MediaType" style="stroke:#181818;stroke-width:1;stroke-dasharray:7,7;"/><polygon fill="#181818" points="288.94,455.6,291.34,446.048,288.0839,450.6738,283.4582,447.4177,288.94,455.6" style="stroke:#181818;stroke-width:1;"/><text fill="#000000" font-family="sans-serif" font-size="13" lengthAdjust="spacing" textLength="61.1978" x="253" y="225.5669">haszn&#225;lja</text></g><!--link HelloResource to RestApplication--><g class="link" data-entity-1="HelloResource" data-entity-2="RestApplication" data-source-line="13" data-uid="lnk12" id="link_HelloResource_RestApplication"><path codeLine="13" d="M195.93,120.2 C184.08,146.52 173.0442,171.0394 163.9542,191.2194" fill="none" id="HelloResource-to-RestApplication" style="stroke:#181818;stroke-width:1;"/><polygon fill="#181818" points="161.49,196.69,168.8334,190.1269,163.5435,192.1312,161.5392,186.8413,161.49,196.69" style="stroke:#181818;stroke-width:1;"/><text fill="#000000" font-family="sans-serif" font-size="13" lengthAdjust="spacing" textLength="34.9375" x="183" y="163.0669">r&#233;sze</text></g><!--SRC=[XOyn3i8m34NtdC8Z2DK7o529ZOK5k82LMYKbQg8u5QB0OHWvHoz6AGoq8B4-___rR1o9m8gTyniMtqJ3S5O0YvBJG6Tp3TiKRLq-QV3onYy61IKQ9ve_WO8T9vvkNvKoWqflaPOXE6ieML_tClrf2X4lELHqe9W8Zu9HqFZ8-95HuvyGVnRMN5ZQdGA3XZr9MtStLz6acsNvbvQ6sDsbPVK0]--></g></svg>